<?xml version="1.0" encoding="iso-8859-1"?>
<!-- Uploaded to: SVG Repo, www.svgrepo.com, Generator: SVG Repo Mixer Tools -->
<svg fill="#000000" height="800px" width="800px" version="1.1" id="Layer_1" xmlns="http://www.w3.org/2000/svg" xmlns:xlink="http://www.w3.org/1999/xlink" 
	 viewBox="0 0 512 512" xml:space="preserve">
<g>
	<g>
		<path d="M287.697,163.755c-2.59-2.101-5.062-4.308-7.346-6.562c-3.378-3.333-8.817-3.297-12.148,0.081
			c-3.332,3.377-3.297,8.816,0.081,12.148c2.679,2.644,5.57,5.227,8.592,7.677c1.591,1.291,3.505,1.919,5.405,1.919
			c2.5,0,4.98-1.087,6.678-3.18C291.948,172.153,291.383,166.744,287.697,163.755z"/>
	</g>
</g>
<g>
	<g>
		<path d="M392.76,245.424c-5.256-31.537-31.431-43.363-59.145-55.882c-5.185-2.342-10.548-4.766-15.84-7.348
			c-4.266-2.081-9.407-0.312-11.489,3.952c-2.08,4.263-0.312,9.407,3.953,11.489c5.521,2.695,11.002,5.17,16.303,7.565
			c28.224,12.751,45.704,21.653,49.27,43.049c0.7,4.203,4.34,7.179,8.464,7.179c0.47,0,0.945-0.039,1.423-0.118
			C390.379,254.53,393.54,250.105,392.76,245.424z"/>
	</g>
</g>
<g>
	<g>
		<path d="M350.801,157.871c-18.748-7.372-51.663-24.122-61.451-53.491c-1.502-4.501-6.366-6.934-10.867-5.434
			c-4.501,1.5-6.933,6.365-5.434,10.867c6.292,18.874,23.796,45.306,71.466,64.048c1.032,0.406,2.095,0.598,3.141,0.598
			c3.428,0,6.666-2.066,7.997-5.45C357.389,164.594,355.217,159.607,350.801,157.871z"/>
	</g>
</g>
<g>
	<g>
		<path d="M256,36.653c-51.508,0-101.586,18.244-141.01,51.372c-1.843,1.549-2.952,3.801-3.056,6.205
			c-0.104,2.405,0.806,4.744,2.508,6.446l25.505,25.505c3.355,3.355,8.794,3.355,12.148,0c3.355-3.355,3.355-8.793,0-12.148
			l-18.724-18.725C168.481,68.501,211.667,53.834,256,53.834c111.474,0,202.166,90.69,202.166,202.166
			c0,44.333-14.667,87.519-41.473,122.628l-59.059-59.057h26.653c9.79,0,17.754-7.964,17.754-17.754V283.49
			c0-9.79-7.964-17.754-17.754-17.754h-80.487L178.056,139.991c-3.355-3.355-8.794-3.355-12.148,0
			c-3.355,3.355-3.355,8.794,0,12.148l245.416,245.416c1.614,1.614,3.8,2.516,6.074,2.516c0.124,0,0.249-0.002,0.372-0.008
			c2.405-0.104,4.656-1.213,6.205-3.056c33.128-39.423,51.372-89.5,51.372-141.008C475.347,135.051,376.948,36.653,256,36.653z
			 M374.55,282.917h9.736c0.316,0,0.573,0.257,0.573,0.573v18.327c0,0.316-0.257,0.573-0.573,0.573h-9.736V282.917z
			 M357.369,302.389h-16.917l-19.472-19.472h36.389V302.389z"/>
	</g>
</g>
<g>
	<g>
		<path d="M437.02,74.981C388.668,26.629,324.38,0,256,0S123.332,26.629,74.98,74.981C26.629,123.332,0,187.62,0,256
			s26.629,132.668,74.98,181.02C123.332,485.371,187.62,512,256,512s132.668-26.629,181.02-74.98
			C485.371,388.668,512,324.38,512,256S485.371,123.332,437.02,74.981z M256,494.819C124.315,494.819,17.181,387.685,17.181,256
			S124.315,17.181,256,17.181S494.819,124.315,494.819,256S387.685,494.819,256,494.819z"/>
	</g>
</g>
<g>
	<g>
		<path d="M397.557,411.324l-16.331-16.332c-3.355-3.355-8.794-3.354-12.148,0c-3.355,3.355-3.355,8.794,0,12.149l9.55,9.552
			C343.52,443.499,300.333,458.166,256,458.166c-111.474,0-202.166-90.69-202.166-202.166c0-44.333,14.667-87.519,41.473-122.628
			l132.364,132.364h-99.958c-9.79,0-17.754,7.964-17.754,17.754v18.327c0,9.79,7.964,17.754,17.754,17.754h153.792l61.617,61.617
			c3.355,3.355,8.794,3.355,12.148,0c3.355-3.355,3.355-8.793,0-12.148L100.677,114.443c-1.702-1.702-4.048-2.614-6.446-2.508
			c-2.405,0.104-4.656,1.213-6.205,3.056C54.897,154.414,36.653,204.492,36.653,256c0,120.949,98.399,219.347,219.347,219.347
			c51.508,0,101.586-18.244,141.01-51.372c1.843-1.549,2.952-3.8,3.056-6.205C400.17,415.365,399.259,413.027,397.557,411.324z
			 M183.266,302.389h-55.553c-0.316,0-0.573-0.257-0.573-0.573V283.49c0-0.316,0.257-0.573,0.573-0.573h55.553V302.389z
			 M264.325,302.389h-63.877v-19.472h44.405L264.325,302.389z"/>
	</g>
</g>
</svg>