<?xml version="1.0" encoding="UTF-8"?>
<!DOCTYPE svg PUBLIC "-//W3C//DTD SVG 1.1//EN" "http://www.w3.org/Graphics/SVG/1.1/DTD/svg11.dtd">
<svg xmlns="http://www.w3.org/2000/svg" version="1.1" width="644px" height="428px" style="shape-rendering:geometricPrecision; text-rendering:geometricPrecision; image-rendering:optimizeQuality; fill-rule:evenodd; clip-rule:evenodd" xmlns:xlink="http://www.w3.org/1999/xlink">
<g><path style="opacity:0.997" fill="#d4b279" d="M 338.5,116.5 C 337.883,116.389 337.383,116.056 337,115.5C 336.5,122.158 336.334,128.825 336.5,135.5C 332.316,129.966 327.982,123.966 323.5,117.5C 323.068,116.29 322.401,115.29 321.5,114.5C 319.15,112.34 318.483,109.84 319.5,107C 328.748,105.618 335.082,108.785 338.5,116.5 Z"/></g>
<g><path style="opacity:0.004" fill="#ba3d7c" d="M 321.5,114.5 C 320.833,115.167 320.833,115.167 321.5,114.5 Z"/></g>
<g><path style="opacity:0.004" fill="#ba3e7c" d="M 323.5,117.5 C 322.833,118.167 322.833,118.167 323.5,117.5 Z"/></g>
<g><path style="opacity:0.012" fill="#bb3f7d" d="M 341.5,117.5 C 342.833,118.167 342.833,118.167 341.5,117.5 Z"/></g>
<g><path style="opacity:0.999" fill="#e7d18d" d="M 338.5,116.5 C 339.117,116.389 339.617,116.056 340,115.5C 340.232,116.737 340.732,117.737 341.5,118.5C 342.469,119.309 343.302,120.309 344,121.5C 344.333,121.167 344.667,120.833 345,120.5C 346.332,122.66 347.832,124.66 349.5,126.5C 348.153,125.972 346.819,125.805 345.5,126C 346.619,133.225 346.619,140.725 345.5,148.5C 345.167,148.5 344.833,148.5 344.5,148.5C 343.89,147.609 343.557,146.609 343.5,145.5C 343.167,144.5 342.5,143.833 341.5,143.5C 339.847,141.039 337.847,138.872 335.5,137C 336.056,136.617 336.389,136.117 336.5,135.5C 336.334,128.825 336.5,122.158 337,115.5C 337.383,116.056 337.883,116.389 338.5,116.5 Z"/></g>
<g><path style="opacity:0.998" fill="#f0e495" d="M 349.5,126.5 C 350.5,126.833 351.167,127.5 351.5,128.5C 350.504,128.586 349.671,128.252 349,127.5C 348.833,128 348.667,128.5 348.5,129C 348.912,141.461 348.912,153.794 348.5,166C 349.044,166.717 349.711,167.217 350.5,167.5C 350.5,167.833 350.5,168.167 350.5,168.5C 347.097,168.851 343.763,169.518 340.5,170.5C 340.334,164.824 340.501,159.157 341,153.5C 341.513,152.473 342.013,151.473 342.5,150.5C 344.027,150.573 345.027,149.906 345.5,148.5C 346.619,140.725 346.619,133.225 345.5,126C 346.819,125.805 348.153,125.972 349.5,126.5 Z"/></g>
<g><path style="opacity:0.162" fill="#bf5d76" d="M 325.5,130.5 C 323.708,130.634 322.042,130.301 320.5,129.5C 318.167,129.5 315.833,129.5 313.5,129.5C 309.4,129.237 305.4,129.57 301.5,130.5C 299.194,130.993 296.861,131.326 294.5,131.5C 296.277,130.4 298.277,129.566 300.5,129C 308.167,128.333 315.833,128.333 323.5,129C 324.416,129.278 325.082,129.778 325.5,130.5 Z"/></g>
<g><path style="opacity:1" fill="#d2ba72" d="M 313.5,129.5 C 313.827,138.682 313.493,147.682 312.5,156.5C 310.63,151.468 309.963,146.135 310.5,140.5C 309.209,140.263 308.209,140.596 307.5,141.5C 305.668,142.248 304.001,143.248 302.5,144.5C 302.167,144.5 301.833,144.5 301.5,144.5C 301.5,139.833 301.5,135.167 301.5,130.5C 305.4,129.57 309.4,129.237 313.5,129.5 Z"/></g>
<g><path style="opacity:0.037" fill="#c35780" d="M 294.5,131.5 C 293.07,132.537 291.403,133.204 289.5,133.5C 290.635,131.787 292.302,131.12 294.5,131.5 Z"/></g>
<g><path style="opacity:0.992" fill="#a47341" d="M 397.5,132.5 C 400.518,132.704 403.518,133.037 406.5,133.5C 408.346,133.222 409.68,133.889 410.5,135.5C 406.734,142.935 401.067,148.268 393.5,151.5C 394.028,150.279 394.695,149.113 395.5,148C 394.167,143.333 394.167,138.667 395.5,134C 392.854,133.503 390.187,133.336 387.5,133.5C 390.679,131.866 394.013,131.533 397.5,132.5 Z"/></g>
<g><path style="opacity:0.094" fill="#b84875" d="M 397.5,132.5 C 400.627,131.185 403.627,131.518 406.5,133.5C 403.518,133.037 400.518,132.704 397.5,132.5 Z"/></g>
<g><path style="opacity:1" fill="#f0e396" d="M 301.5,130.5 C 301.5,135.167 301.5,139.833 301.5,144.5C 300.5,144.833 299.833,145.5 299.5,146.5C 299.5,147.167 299.167,147.5 298.5,147.5C 296.181,148.167 293.847,148.334 291.5,148C 292.252,147.329 292.586,146.496 292.5,145.5C 293.401,144.71 294.068,143.71 294.5,142.5C 294.833,142.5 295.167,142.5 295.5,142.5C 296.683,141.496 298.016,140.662 299.5,140C 297.465,139.401 295.799,139.901 294.5,141.5C 292.447,141.402 290.78,142.069 289.5,143.5C 289.158,144.338 288.492,144.672 287.5,144.5C 285.612,142.012 284.945,139.012 285.5,135.5C 287.153,135.34 288.486,134.674 289.5,133.5C 291.403,133.204 293.07,132.537 294.5,131.5C 296.861,131.326 299.194,130.993 301.5,130.5 Z"/></g>
<g><path style="opacity:0.991" fill="#f5ec9b" d="M 351.5,128.5 C 353.167,129.5 354.5,130.833 355.5,132.5C 356.813,151.294 356.813,169.961 355.5,188.5C 355.31,183.63 354.644,178.964 353.5,174.5C 353.5,174.167 353.5,173.833 353.5,173.5C 353.5,171.5 353.5,169.5 353.5,167.5C 352.5,167.5 351.5,167.5 350.5,167.5C 349.711,167.217 349.044,166.717 348.5,166C 348.912,153.794 348.912,141.461 348.5,129C 348.667,128.5 348.833,128 349,127.5C 349.671,128.252 350.504,128.586 351.5,128.5 Z"/></g>
<g><path style="opacity:0.537" fill="#cb7581" d="M 289.5,133.5 C 288.486,134.674 287.153,135.34 285.5,135.5C 286.287,133.896 287.62,133.229 289.5,133.5 Z"/></g>
<g><path style="opacity:1" fill="#c2a460" d="M 313.5,129.5 C 315.833,129.5 318.167,129.5 320.5,129.5C 321.089,133.971 320.423,137.971 318.5,141.5C 318.167,141.5 317.833,141.5 317.5,141.5C 317.44,140.957 317.107,140.624 316.5,140.5C 315.505,145.792 315.172,151.125 315.5,156.5C 314.348,157.625 313.348,157.625 312.5,156.5C 313.493,147.682 313.827,138.682 313.5,129.5 Z"/></g>
<g><path style="opacity:0.004" fill="#ba3d7c" d="M 329.5,134.5 C 330.833,135.167 330.833,135.167 329.5,134.5 Z"/></g>
<g><path style="opacity:0.004" fill="#bb3f7d" d="M 359.5,134.5 C 360.833,135.167 360.833,135.167 359.5,134.5 Z"/></g>
<g><path style="opacity:0.667" fill="#c06c73" d="M 385.5,133.5 C 385.5,133.833 385.5,134.167 385.5,134.5C 382.598,135.578 379.598,136.244 376.5,136.5C 379.145,134.69 382.145,133.69 385.5,133.5 Z"/></g>
<g><path style="opacity:0.998" fill="#b48f51" d="M 385.5,133.5 C 386.167,133.5 386.833,133.5 387.5,133.5C 390.187,133.336 392.854,133.503 395.5,134C 394.167,138.667 394.167,143.333 395.5,148C 394.695,149.113 394.028,150.279 393.5,151.5C 390.926,153.024 388.259,154.358 385.5,155.5C 386.833,148.5 386.833,141.5 385.5,134.5C 385.5,134.167 385.5,133.833 385.5,133.5 Z"/></g>
<g><path style="opacity:0.924" fill="#a87845" d="M 320.5,129.5 C 322.042,130.301 323.708,130.634 325.5,130.5C 327.379,130.393 327.712,130.893 326.5,132C 327.163,133.518 328.163,134.685 329.5,135.5C 331.362,138.876 333.029,142.376 334.5,146C 333.307,148.597 331.307,149.597 328.5,149C 325.266,146.252 321.932,143.752 318.5,141.5C 320.423,137.971 321.089,133.971 320.5,129.5 Z"/></g>
<g><path style="opacity:0.989" fill="#eee092" d="M 355.5,132.5 C 356.833,133.167 357.833,134.167 358.5,135.5C 359.819,160.961 359.819,186.294 358.5,211.5C 358.073,204.614 357.073,197.947 355.5,191.5C 355.5,191.167 355.5,190.833 355.5,190.5C 355.5,189.833 355.5,189.167 355.5,188.5C 356.813,169.961 356.813,151.294 355.5,132.5 Z"/></g>
<g><path style="opacity:0.998" fill="#e9d98c" d="M 358.5,135.5 C 358.833,135.5 359.167,135.5 359.5,135.5C 360.167,136.5 360.833,137.5 361.5,138.5C 362.472,163.801 362.805,189.134 362.5,214.5C 361.833,214.833 361.167,215.167 360.5,215.5C 359.655,214.329 358.989,212.995 358.5,211.5C 359.819,186.294 359.819,160.961 358.5,135.5 Z"/></g>
<g><path style="opacity:0.004" fill="#bb407e" d="M 362.5,137.5 C 363.833,138.167 363.833,138.167 362.5,137.5 Z"/></g>
<g><path style="opacity:1" fill="#c9ab69" d="M 385.5,134.5 C 386.833,141.5 386.833,148.5 385.5,155.5C 381.585,157.205 377.751,159.205 374,161.5C 373.601,161.272 373.435,160.938 373.5,160.5C 373.5,153.167 373.5,145.833 373.5,138.5C 372.5,138.5 371.5,138.5 370.5,138.5C 372.102,136.926 374.102,136.259 376.5,136.5C 379.598,136.244 382.598,135.578 385.5,134.5 Z"/></g>
<g><path style="opacity:0.996" fill="#d6b87a" d="M 285.5,135.5 C 284.945,139.012 285.612,142.012 287.5,144.5C 285.678,146.01 283.678,147.343 281.5,148.5C 280.504,148.586 279.671,148.252 279,147.5C 278.667,148.5 278.333,149.5 278,150.5C 277.502,147.183 277.335,143.85 277.5,140.5C 279.629,138.05 282.296,136.383 285.5,135.5 Z"/></g>
<g><path style="opacity:0.982" fill="#d6b77a" d="M 370.5,138.5 C 371.5,138.5 372.5,138.5 373.5,138.5C 373.5,145.833 373.5,153.167 373.5,160.5C 371.96,162.838 371.294,165.505 371.5,168.5C 370.322,176.644 369.655,184.978 369.5,193.5C 369.821,198.695 369.487,203.695 368.5,208.5C 368.5,185.833 368.5,163.167 368.5,140.5C 367.5,140.5 366.5,140.5 365.5,140.5C 366.93,139.463 368.597,138.796 370.5,138.5 Z"/></g>
<g><path style="opacity:0.149" fill="#c66081" d="M 295.5,142.5 C 295.5,141.833 295.167,141.5 294.5,141.5C 295.799,139.901 297.465,139.401 299.5,140C 298.016,140.662 296.683,141.496 295.5,142.5 Z"/></g>
<g><path style="opacity:0.179" fill="#c05a7a" d="M 307.5,141.5 C 308.209,140.596 309.209,140.263 310.5,140.5C 309.963,146.135 310.63,151.468 312.5,156.5C 311.603,157.598 310.77,157.598 310,156.5C 310.118,151.067 309.285,146.067 307.5,141.5 Z"/></g>
<g><path style="opacity:0.994" fill="#ddc97f" d="M 363.5,140.5 C 364.167,140.5 364.833,140.5 365.5,140.5C 366.5,140.5 367.5,140.5 368.5,140.5C 368.5,163.167 368.5,185.833 368.5,208.5C 368.5,209.833 367.833,210.5 366.5,210.5C 366.264,187.618 366.264,164.785 366.5,142C 365.263,141.768 364.263,141.268 363.5,140.5 Z"/></g>
<g><path style="opacity:1" fill="#c99571" d="M 277.5,140.5 C 277.335,143.85 277.502,147.183 278,150.5C 278.333,149.5 278.667,148.5 279,147.5C 279.671,148.252 280.504,148.586 281.5,148.5C 280.089,150.914 278.089,152.581 275.5,153.5C 276.589,149.922 276.755,146.255 276,142.5C 275.329,143.252 274.496,143.586 273.5,143.5C 274.436,142.026 275.77,141.026 277.5,140.5 Z"/></g>
<g><path style="opacity:1" fill="#e2d085" d="M 361.5,138.5 C 361.833,138.5 362.167,138.5 362.5,138.5C 362.833,139.167 363.167,139.833 363.5,140.5C 364.263,141.268 365.263,141.768 366.5,142C 366.264,164.785 366.264,187.618 366.5,210.5C 365.5,212.167 364.167,213.5 362.5,214.5C 362.805,189.134 362.472,163.801 361.5,138.5 Z"/></g>
<g><path style="opacity:0.037" fill="#c2547f" d="M 294.5,141.5 C 294.5,141.833 294.5,142.167 294.5,142.5C 292.883,143.038 291.216,143.371 289.5,143.5C 290.78,142.069 292.447,141.402 294.5,141.5 Z"/></g>
<g><path style="opacity:0.121" fill="#bb3d7b" d="M 317.5,141.5 C 316.833,146.5 316.167,151.5 315.5,156.5C 315.172,151.125 315.505,145.792 316.5,140.5C 317.107,140.624 317.44,140.957 317.5,141.5 Z"/></g>
<g><path style="opacity:0.004" fill="#c2587f" d="M 341.5,143.5 C 342.5,143.833 343.167,144.5 343.5,145.5C 342.167,145.5 341.5,144.833 341.5,143.5 Z"/></g>
<g><path style="opacity:0.008" fill="#c1547e" d="M 301.5,144.5 C 301.833,144.5 302.167,144.5 302.5,144.5C 302.027,145.906 301.027,146.573 299.5,146.5C 299.833,145.5 300.5,144.833 301.5,144.5 Z"/></g>
<g><path style="opacity:0.986" fill="#be9560" d="M 275.5,153.5 C 274.432,156.075 272.765,158.242 270.5,160C 271.094,160.464 271.761,160.631 272.5,160.5C 276.182,160.335 279.848,160.501 283.5,161C 282.944,161.383 282.611,161.883 282.5,162.5C 281.5,163.167 280.5,163.833 279.5,164.5C 275.404,166.28 271.071,166.946 266.5,166.5C 265.243,161.297 265.243,155.964 266.5,150.5C 267.833,147.167 270.167,144.833 273.5,143.5C 274.496,143.586 275.329,143.252 276,142.5C 276.755,146.255 276.589,149.922 275.5,153.5 Z"/></g>
<g><path style="opacity:0.05" fill="#c1537f" d="M 292.5,145.5 C 292.586,146.496 292.252,147.329 291.5,148C 293.847,148.334 296.181,148.167 298.5,147.5C 296.22,149.223 293.553,149.889 290.5,149.5C 290.229,147.62 290.896,146.287 292.5,145.5 Z"/></g>
<g><path style="opacity:0.506" fill="#cf7d85" d="M 344.5,148.5 C 344.833,148.5 345.167,148.5 345.5,148.5C 345.027,149.906 344.027,150.573 342.5,150.5C 342.833,149.5 343.5,148.833 344.5,148.5 Z"/></g>
<g><path style="opacity:0.004" fill="#b83879" d="M 263.5,153.5 C 262.833,152.167 262.833,152.167 263.5,153.5 Z"/></g>
<g><path style="opacity:0.431" fill="#c25c7e" d="M 339.5,151.5 C 338.486,152.674 337.153,153.34 335.5,153.5C 336.287,151.896 337.62,151.229 339.5,151.5 Z"/></g>
<g><path style="opacity:0.247" fill="#b73f73" d="M 300.5,155.5 C 298.143,155.337 295.81,155.503 293.5,156C 295.054,158.287 296.721,160.454 298.5,162.5C 295.687,162.025 293.687,163.025 292.5,165.5C 292.167,165.5 291.833,165.5 291.5,165.5C 290.833,165.5 290.167,165.5 289.5,165.5C 291.984,163.349 291.984,161.015 289.5,158.5C 290.399,155.29 292.566,153.623 296,153.5C 297.876,153.525 299.376,154.191 300.5,155.5 Z"/></g>
<g><path style="opacity:0.999" fill="#ddcb7f" d="M 342.5,150.5 C 342.013,151.473 341.513,152.473 341,153.5C 340.501,159.157 340.334,164.824 340.5,170.5C 337.63,171.634 334.63,172.3 331.5,172.5C 331.334,167.156 331.501,161.823 332,156.5C 332.667,155.167 333.333,155.167 334,156.5C 334.513,155.473 335.013,154.473 335.5,153.5C 337.153,153.34 338.486,152.674 339.5,151.5C 340.391,150.89 341.391,150.557 342.5,150.5 Z"/></g>
<g><path style="opacity:0.119" fill="#ba3b7a" d="M 272.5,160.5 C 276.311,159.355 280.311,159.188 284.5,160C 285.412,161.625 284.745,162.459 282.5,162.5C 282.611,161.883 282.944,161.383 283.5,161C 279.848,160.501 276.182,160.335 272.5,160.5 Z"/></g>
<g><path style="opacity:0.988" fill="#a47240" d="M 300.5,155.5 C 303.06,157.273 305.393,159.273 307.5,161.5C 306.518,164.962 306.185,168.629 306.5,172.5C 303.484,169.48 300.817,166.146 298.5,162.5C 296.721,160.454 295.054,158.287 293.5,156C 295.81,155.503 298.143,155.337 300.5,155.5 Z"/></g>
<g><path style="opacity:0.995" fill="#c7a667" d="M 335.5,153.5 C 335.013,154.473 334.513,155.473 334,156.5C 333.333,155.167 332.667,155.167 332,156.5C 331.501,161.823 331.334,167.156 331.5,172.5C 329.371,173.203 327.371,174.203 325.5,175.5C 323.735,176.461 321.735,176.795 319.5,176.5C 318.2,174.777 317.533,172.61 317.5,170C 317.667,167.833 317.833,165.667 318,163.5C 318.333,163.167 318.667,162.833 319,162.5C 320.043,166.226 320.543,165.893 320.5,161.5C 325.024,158.091 330.024,155.424 335.5,153.5 Z"/></g>
<g><path style="opacity:0.986" fill="#a57242" d="M 266.5,150.5 C 265.243,155.964 265.243,161.297 266.5,166.5C 266.206,169.754 264.873,172.421 262.5,174.5C 261.29,174.932 260.29,175.599 259.5,176.5C 257.112,179.27 255.112,179.103 253.5,176C 255.253,167.763 258.586,160.263 263.5,153.5C 264.272,152.306 265.272,151.306 266.5,150.5 Z"/></g>
<g><path style="opacity:0.004" fill="#b93979" d="M 279.5,164.5 C 280.833,165.167 280.833,165.167 279.5,164.5 Z"/></g>
<g><path style="opacity:0.994" fill="#b38951" d="M 307.5,161.5 C 309.436,162.259 311.269,163.259 313,164.5C 315.437,163.2 317.937,162.2 320.5,161.5C 320.543,165.893 320.043,166.226 319,162.5C 318.667,162.833 318.333,163.167 318,163.5C 317.833,165.667 317.667,167.833 317.5,170C 317.533,172.61 318.2,174.777 319.5,176.5C 318.609,177.261 317.942,178.261 317.5,179.5C 316.932,184.643 315.766,189.643 314,194.5C 309.357,198.657 307.524,197.324 308.5,190.5C 308.666,185.156 308.499,179.823 308,174.5C 307.617,173.944 307.117,173.611 306.5,173.5C 306.5,173.167 306.5,172.833 306.5,172.5C 306.185,168.629 306.518,164.962 307.5,161.5 Z"/></g>
<g><path style="opacity:0.439" fill="#b45167" d="M 292.5,165.5 C 294.587,166.585 295.92,168.251 296.5,170.5C 294.413,169.415 293.08,167.749 292.5,165.5 Z"/></g>
<g><path style="opacity:1" fill="#a37a3c" d="M 291.5,165.5 C 291.833,165.5 292.167,165.5 292.5,165.5C 293.08,167.749 294.413,169.415 296.5,170.5C 297.427,177.443 297.76,184.443 297.5,191.5C 295.847,191.66 294.514,192.326 293.5,193.5C 293.167,193.5 292.833,193.5 292.5,193.5C 291.506,184.348 291.173,175.015 291.5,165.5 Z"/></g>
<g><path style="opacity:0.286" fill="#cc7086" d="M 350.5,168.5 C 350.5,168.167 350.5,167.833 350.5,167.5C 351.5,167.5 352.5,167.5 353.5,167.5C 353.5,169.5 353.5,171.5 353.5,173.5C 352.687,171.739 351.687,170.072 350.5,168.5 Z"/></g>
<g><path style="opacity:0.172" fill="#be4f7b" d="M 350.5,168.5 C 347.326,170.496 343.826,171.83 340,172.5C 339.837,174.731 341.003,176.065 343.5,176.5C 345.214,175.391 345.881,176.058 345.5,178.5C 343.99,177.272 342.49,177.272 341,178.5C 340.503,181.146 340.336,183.813 340.5,186.5C 339.167,186.5 337.833,186.5 336.5,186.5C 337.209,185.596 338.209,185.263 339.5,185.5C 339.816,182.022 339.316,178.688 338,175.5C 334.157,174.208 329.991,174.208 325.5,175.5C 327.371,174.203 329.371,173.203 331.5,172.5C 334.63,172.3 337.63,171.634 340.5,170.5C 343.763,169.518 347.097,168.851 350.5,168.5 Z"/></g>
<g><path style="opacity:0.004" fill="#b93b7a" d="M 299.5,172.5 C 300.833,173.167 300.833,173.167 299.5,172.5 Z"/></g>
<g><path style="opacity:1" fill="#d3ba73" d="M 280.5,170.5 C 281.826,174.614 282.493,179.114 282.5,184C 282.443,189.082 281.776,193.915 280.5,198.5C 279.833,198.833 279.167,199.167 278.5,199.5C 277.041,199.433 275.708,199.766 274.5,200.5C 274.831,192.14 274.498,183.807 273.5,175.5C 272.583,176.127 271.583,176.461 270.5,176.5C 273.494,174 276.827,172 280.5,170.5 Z"/></g>
<g><path style="opacity:0.004" fill="#b83878" d="M 262.5,174.5 C 263.833,175.167 263.833,175.167 262.5,174.5 Z"/></g>
<g><path style="opacity:0.987" fill="#9a6435" d="M 296.5,170.5 C 297.728,171.306 298.728,172.306 299.5,173.5C 299.783,174.289 300.283,174.956 301,175.5C 301.499,180.823 301.666,186.156 301.5,191.5C 300.5,191.5 299.5,191.5 298.5,191.5C 298.167,191.5 297.833,191.5 297.5,191.5C 297.76,184.443 297.427,177.443 296.5,170.5 Z"/></g>
<g><path style="opacity:0.004" fill="#b83878" d="M 259.5,176.5 C 260.833,177.167 260.833,177.167 259.5,176.5 Z"/></g>
<g><path style="opacity:0.424" fill="#b55867" d="M 306.5,173.5 C 307.117,173.611 307.617,173.944 308,174.5C 308.499,179.823 308.666,185.156 308.5,190.5C 307.565,185.006 306.898,179.339 306.5,173.5 Z"/></g>
<g><path style="opacity:1" fill="#ba9657" d="M 289.5,165.5 C 290.167,165.5 290.833,165.5 291.5,165.5C 291.173,175.015 291.506,184.348 292.5,193.5C 288.693,195.549 284.693,197.216 280.5,198.5C 281.776,193.915 282.443,189.082 282.5,184C 282.493,179.114 281.826,174.614 280.5,170.5C 283.22,168.473 286.22,166.807 289.5,165.5 Z"/></g>
<g><path style="opacity:0.971" fill="#c09a61" d="M 345.5,178.5 C 346.129,182.482 347.462,186.315 349.5,190C 349.252,191.749 348.252,192.582 346.5,192.5C 345.105,196.591 344.438,200.924 344.5,205.5C 344.5,206.167 344.5,206.833 344.5,207.5C 343.262,209.214 342.595,211.214 342.5,213.5C 345.5,213.5 348.5,213.5 351.5,213.5C 351.5,214.833 351.5,216.167 351.5,217.5C 347.958,217.187 344.625,217.521 341.5,218.5C 340.341,222.151 338.674,225.485 336.5,228.5C 336.5,223.5 336.5,218.5 336.5,213.5C 330.5,213.5 324.5,213.5 318.5,213.5C 317.209,213.737 316.209,213.404 315.5,212.5C 322.167,212.5 328.833,212.5 335.5,212.5C 336.87,210.75 337.87,208.75 338.5,206.5C 340.238,201.783 340.904,196.783 340.5,191.5C 334.167,191.5 327.833,191.5 321.5,191.5C 320.929,190.027 320.929,188.36 321.5,186.5C 326.5,185.167 331.5,185.167 336.5,186.5C 337.833,186.5 339.167,186.5 340.5,186.5C 340.336,183.813 340.503,181.146 341,178.5C 342.49,177.272 343.99,177.272 345.5,178.5 Z"/></g>
<g><path style="opacity:0.039" fill="#be4f7d" d="M 371.5,168.5 C 371.71,177.05 371.043,185.384 369.5,193.5C 369.655,184.978 370.322,176.644 371.5,168.5 Z"/></g>
<g><path style="opacity:0.027" fill="#c86483" d="M 353.5,174.5 C 354.644,178.964 355.31,183.63 355.5,188.5C 355.5,189.167 355.5,189.833 355.5,190.5C 354.043,185.402 353.376,180.069 353.5,174.5 Z"/></g>
<g><path style="opacity:1" fill="#eede92" d="M 274.5,200.5 C 274.5,200.833 274.5,201.167 274.5,201.5C 269.52,204.133 264.52,206.8 259.5,209.5C 257.533,201.903 256.866,193.903 257.5,185.5C 261.553,182.117 265.886,179.117 270.5,176.5C 271.583,176.461 272.583,176.127 273.5,175.5C 274.498,183.807 274.831,192.14 274.5,200.5 Z"/></g>
<g><path style="opacity:0.004" fill="#b73777" d="M 253.5,187.5 C 252.833,186.167 252.833,186.167 253.5,187.5 Z"/></g>
<g><path style="opacity:0.467" fill="#c26a76" d="M 253.5,188.5 C 253.027,189.906 252.027,190.573 250.5,190.5C 250.973,189.094 251.973,188.427 253.5,188.5 Z"/></g>
<g><path style="opacity:0.408" fill="#c06576" d="M 321.5,191.5 C 327.833,191.5 334.167,191.5 340.5,191.5C 340.904,196.783 340.238,201.783 338.5,206.5C 339.167,201.84 339.333,197.174 339,192.5C 334.972,192.452 330.805,192.785 326.5,193.5C 324.36,193.444 322.694,192.777 321.5,191.5 Z"/></g>
<g><path style="opacity:0.037" fill="#b64470" d="M 297.5,191.5 C 297.833,191.5 298.167,191.5 298.5,191.5C 297.22,192.931 295.553,193.598 293.5,193.5C 294.514,192.326 295.847,191.66 297.5,191.5 Z"/></g>
<g><path style="opacity:0.043" fill="#c76482" d="M 355.5,191.5 C 357.073,197.947 358.073,204.614 358.5,211.5C 358.989,212.995 359.655,214.329 360.5,215.5C 359.434,216.692 358.601,216.359 358,214.5C 356.837,206.863 356.003,199.196 355.5,191.5 Z"/></g>
<g><path style="opacity:0.994" fill="#ba9458" d="M 250.5,190.5 C 249.217,192.606 248.384,194.94 248,197.5C 247.667,196.833 247.333,196.167 247,195.5C 246.177,204.01 246.343,212.344 247.5,220.5C 243.234,228.811 245.234,234.811 253.5,238.5C 251.656,240.279 250.99,242.612 251.5,245.5C 248.211,244.626 244.877,243.959 241.5,243.5C 240.181,228.863 240.181,214.197 241.5,199.5C 244.167,196.167 247.167,193.167 250.5,190.5 Z"/></g>
<g><path style="opacity:0.012" fill="#be4d7a" d="M 278.5,199.5 C 277.486,200.674 276.153,201.34 274.5,201.5C 274.5,201.167 274.5,200.833 274.5,200.5C 275.708,199.766 277.041,199.433 278.5,199.5 Z"/></g>
<g><path style="opacity:0.11" fill="#ba3a7b" d="M 315.5,201.5 C 316.479,204.625 316.813,207.958 316.5,211.5C 323.022,211.177 329.355,211.51 335.5,212.5C 328.833,212.5 322.167,212.5 315.5,212.5C 315.5,208.833 315.5,205.167 315.5,201.5 Z"/></g>
<g><path style="opacity:0.239" fill="#ba5671" d="M 346.5,192.5 C 346.72,197.1 346.054,201.433 344.5,205.5C 344.438,200.924 345.105,196.591 346.5,192.5 Z"/></g>
<g><path style="opacity:0.792" fill="#da948d" d="M 313.5,202.5 C 313.027,203.906 312.027,204.573 310.5,204.5C 310.973,203.094 311.973,202.427 313.5,202.5 Z"/></g>
<g><path style="opacity:0.999" fill="#f4e999" d="M 315.5,201.5 C 315.5,205.167 315.5,208.833 315.5,212.5C 316.209,213.404 317.209,213.737 318.5,213.5C 318.5,214.833 318.5,216.167 318.5,217.5C 317.5,217.5 316.5,217.5 315.5,217.5C 315.175,224.687 315.509,231.687 316.5,238.5C 317.5,238.5 318.5,238.5 319.5,238.5C 319.5,242.167 319.5,245.833 319.5,249.5C 313.122,249.705 306.789,249.372 300.5,248.5C 301.657,244.747 301.657,240.914 300.5,237C 300.833,236.5 301.167,236 301.5,235.5C 302.736,236.246 304.07,236.579 305.5,236.5C 306.492,236.328 307.158,236.662 307.5,237.5C 308.209,238.404 309.209,238.737 310.5,238.5C 310.5,231.5 310.5,224.5 310.5,217.5C 308.167,217.5 305.833,217.5 303.5,217.5C 303.167,216.167 302.833,214.833 302.5,213.5C 305.385,213.806 308.052,213.473 310.5,212.5C 310.5,209.833 310.5,207.167 310.5,204.5C 312.027,204.573 313.027,203.906 313.5,202.5C 313.842,201.662 314.508,201.328 315.5,201.5 Z"/></g>
<g><path style="opacity:0.788" fill="#bf6473" d="M 286.5,203.5 C 287.924,205.515 288.59,207.848 288.5,210.5C 286.837,208.562 286.171,206.228 286.5,203.5 Z"/></g>
<g><path style="opacity:1" fill="#cbb06b" d="M 257.5,185.5 C 256.866,193.903 257.533,201.903 259.5,209.5C 258.833,210.167 258.167,210.833 257.5,211.5C 255.551,213.223 253.551,214.89 251.5,216.5C 250.5,216.833 249.833,217.5 249.5,218.5C 248.833,219.167 248.167,219.833 247.5,220.5C 246.343,212.344 246.177,204.01 247,195.5C 247.333,196.167 247.667,196.833 248,197.5C 248.384,194.94 249.217,192.606 250.5,190.5C 252.027,190.573 253.027,189.906 253.5,188.5C 253.5,188.167 253.5,187.833 253.5,187.5C 254.833,186.833 256.167,186.167 257.5,185.5 Z"/></g>
<g><path style="opacity:0.004" fill="#b83778" d="M 257.5,211.5 C 258.833,212.167 258.833,212.167 257.5,211.5 Z"/></g>
<g><path style="opacity:0.085" fill="#bc437c" d="M 310.5,204.5 C 310.5,207.167 310.5,209.833 310.5,212.5C 302.757,213.13 295.424,212.463 288.5,210.5C 295.412,211.462 302.412,211.795 309.5,211.5C 309.198,208.941 309.532,206.607 310.5,204.5 Z"/></g>
<g><path style="opacity:0.539" fill="#b76a65" d="M 344.5,207.5 C 344.5,208.833 344.5,210.167 344.5,211.5C 347.228,211.171 349.562,211.837 351.5,213.5C 348.5,213.5 345.5,213.5 342.5,213.5C 342.595,211.214 343.262,209.214 344.5,207.5 Z"/></g>
<g><path style="opacity:1" fill="#bf995f" d="M 286.5,203.5 C 286.171,206.228 286.837,208.562 288.5,210.5C 295.424,212.463 302.757,213.13 310.5,212.5C 308.052,213.473 305.385,213.806 302.5,213.5C 298.116,213.174 293.783,213.508 289.5,214.5C 288.913,216.742 288.579,218.909 288.5,221C 288.862,222.225 289.362,223.391 290,224.5C 290.21,222.942 290.71,221.609 291.5,220.5C 292.338,220.842 292.672,221.508 292.5,222.5C 291.085,226.214 291.419,229.88 293.5,233.5C 289.259,229.369 286.259,224.369 284.5,218.5C 282.19,217.836 279.69,217.503 277,217.5C 274.05,217.568 271.383,218.234 269,219.5C 268.505,217.527 268.338,215.527 268.5,213.5C 273.167,213.5 277.833,213.5 282.5,213.5C 282.795,211.265 282.461,209.265 281.5,207.5C 281.252,203.173 282.918,201.839 286.5,203.5 Z"/></g>
<g><path style="opacity:0.992" fill="#d1b373" d="M 318.5,213.5 C 324.5,213.5 330.5,213.5 336.5,213.5C 336.5,218.5 336.5,223.5 336.5,228.5C 335.248,230.001 334.248,231.668 333.5,233.5C 332.5,233.833 331.833,234.5 331.5,235.5C 330.833,235.5 330.5,235.833 330.5,236.5C 329.443,237.206 329.776,237.539 331.5,237.5C 332.492,237.672 333.158,237.338 333.5,236.5C 334.5,236.5 335.5,236.5 336.5,236.5C 336.5,239.5 336.5,242.5 336.5,245.5C 333.458,245.733 330.792,246.733 328.5,248.5C 328.167,248.5 327.833,248.5 327.5,248.5C 327.167,248.5 326.833,248.5 326.5,248.5C 327.144,243.093 327.311,237.76 327,232.5C 325.871,234.141 324.371,235.141 322.5,235.5C 325.529,232.141 328.529,228.808 331.5,225.5C 332.674,224.486 333.34,223.153 333.5,221.5C 333.833,220.833 334.167,220.167 334.5,219.5C 335.043,219.44 335.376,219.107 335.5,218.5C 329.872,217.505 324.206,217.171 318.5,217.5C 318.5,216.167 318.5,214.833 318.5,213.5 Z"/></g>
<g><path style="opacity:1" fill="#ae6856" d="M 281.5,207.5 C 282.461,209.265 282.795,211.265 282.5,213.5C 277.833,213.5 273.167,213.5 268.5,213.5C 268.338,215.527 268.505,217.527 269,219.5C 271.383,218.234 274.05,217.568 277,217.5C 279.69,217.503 282.19,217.836 284.5,218.5C 279.821,218.334 275.155,218.501 270.5,219C 271.056,219.383 271.389,219.883 271.5,220.5C 270.603,221.598 269.77,221.598 269,220.5C 268.421,224.203 268.588,227.869 269.5,231.5C 267.833,230.5 266.5,229.167 265.5,227.5C 266.805,225.603 267.471,223.269 267.5,220.5C 267.471,217.731 266.805,215.397 265.5,213.5C 265.611,212.883 265.944,212.383 266.5,212C 271.419,211.198 276.252,211.365 281,212.5C 281.494,210.866 281.66,209.199 281.5,207.5 Z"/></g>
<g><path style="opacity:0.897" fill="#9b6835" d="M 265.5,213.5 C 266.805,215.397 267.471,217.731 267.5,220.5C 267.471,223.269 266.805,225.603 265.5,227.5C 265.5,226.833 265.167,226.5 264.5,226.5C 262.719,223.777 261.052,220.943 259.5,218C 261.114,215.873 263.114,214.373 265.5,213.5 Z"/></g>
<g><path style="opacity:0.004" fill="#b73677" d="M 251.5,216.5 C 252.833,217.167 252.833,217.167 251.5,216.5 Z"/></g>
<g><path style="opacity:0.478" fill="#c46b7a" d="M 318.5,217.5 C 324.206,217.171 329.872,217.505 335.5,218.5C 335.376,219.107 335.043,219.44 334.5,219.5C 328.841,218.592 323.174,218.258 317.5,218.5C 316.504,224.798 316.17,231.132 316.5,237.5C 316.5,237.833 316.5,238.167 316.5,238.5C 315.509,231.687 315.175,224.687 315.5,217.5C 316.5,217.5 317.5,217.5 318.5,217.5 Z"/></g>
<g><path style="opacity:0.408" fill="#b46461" d="M 351.5,213.5 C 353.22,214.751 353.553,216.251 352.5,218C 348.848,218.499 345.182,218.665 341.5,218.5C 344.625,217.521 347.958,217.187 351.5,217.5C 351.5,216.167 351.5,214.833 351.5,213.5 Z"/></g>
<g><path style="opacity:0.004" fill="#b73677" d="M 249.5,218.5 C 250.833,219.167 250.833,219.167 249.5,218.5 Z"/></g>
<g><path style="opacity:0.195" fill="#cb7382" d="M 303.5,217.5 C 305.833,217.5 308.167,217.5 310.5,217.5C 310.5,224.5 310.5,231.5 310.5,238.5C 309.209,238.737 308.209,238.404 307.5,237.5C 309.456,231.588 310.123,225.255 309.5,218.5C 303.31,218.177 297.31,218.51 291.5,219.5C 290.957,219.44 290.624,219.107 290.5,218.5C 294.783,217.508 299.116,217.174 303.5,217.5 Z"/></g>
<g><path style="opacity:1" fill="#d5bf75" d="M 302.5,213.5 C 302.833,214.833 303.167,216.167 303.5,217.5C 299.116,217.174 294.783,217.508 290.5,218.5C 290.624,219.107 290.957,219.44 291.5,219.5C 291.5,219.833 291.5,220.167 291.5,220.5C 290.71,221.609 290.21,222.942 290,224.5C 289.362,223.391 288.862,222.225 288.5,221C 288.579,218.909 288.913,216.742 289.5,214.5C 293.783,213.508 298.116,213.174 302.5,213.5 Z"/></g>
<g><path style="opacity:0.129" fill="#be5379" d="M 333.5,221.5 C 333.34,223.153 332.674,224.486 331.5,225.5C 331.229,223.62 331.896,222.287 333.5,221.5 Z"/></g>
<g><path style="opacity:0.682" fill="#b2665d" d="M 353.5,221.5 C 352.167,224.833 349.833,227.167 346.5,228.5C 348.5,225.833 350.833,223.5 353.5,221.5 Z"/></g>
<g><path style="opacity:0.969" fill="#a26942" d="M 353.5,221.5 C 353.56,220.957 353.893,220.624 354.5,220.5C 356.888,222.387 359.388,223.054 362,222.5C 361.405,227.295 358.905,230.962 354.5,233.5C 354.817,229.298 354.483,225.298 353.5,221.5 Z"/></g>
<g><path style="opacity:0.239" fill="#c16278" d="M 292.5,222.5 C 293.906,222.973 294.573,223.973 294.5,225.5C 293.094,225.027 292.427,224.027 292.5,222.5 Z"/></g>
<g><path style="opacity:0.004" fill="#b73677" d="M 264.5,226.5 C 263.833,227.167 263.833,227.167 264.5,226.5 Z"/></g>
<g><path style="opacity:1" fill="#a3743e" d="M 241.5,199.5 C 240.181,214.197 240.181,228.863 241.5,243.5C 238.569,241.909 235.902,239.909 233.5,237.5C 227.713,224.455 229.713,212.622 239.5,202C 238.849,200.692 239.515,199.859 241.5,199.5 Z"/></g>
<g><path style="opacity:0.161" fill="#c05979" d="M 294.5,225.5 C 295.906,225.973 296.573,226.973 296.5,228.5C 295.094,228.027 294.427,227.027 294.5,225.5 Z"/></g>
<g><path style="opacity:0.998" fill="#d9bc7d" d="M 292.5,222.5 C 292.427,224.027 293.094,225.027 294.5,225.5C 294.427,227.027 295.094,228.027 296.5,228.5C 298.88,231.881 301.88,234.547 305.5,236.5C 304.07,236.579 302.736,236.246 301.5,235.5C 301.167,236 300.833,236.5 300.5,237C 301.657,240.914 301.657,244.747 300.5,248.5C 299.833,248.5 299.167,248.5 298.5,248.5C 298.167,248.5 297.833,248.5 297.5,248.5C 295.786,247.262 293.786,246.595 291.5,246.5C 290.945,242.988 291.612,239.988 293.5,237.5C 294.492,237.672 295.158,237.338 295.5,236.5C 295.167,235.5 294.5,234.833 293.5,234.5C 293.5,234.167 293.5,233.833 293.5,233.5C 291.419,229.88 291.085,226.214 292.5,222.5 Z"/></g>
<g><path style="opacity:0.998" fill="#bd945d" d="M 271.5,220.5 C 275.835,226.036 280.668,230.369 286,233.5C 286.333,233.167 286.667,232.833 287,232.5C 287.698,233.691 288.531,234.691 289.5,235.5C 290.403,238.391 290.736,241.391 290.5,244.5C 289.5,244.5 288.5,244.5 287.5,244.5C 285.046,243.773 282.713,242.773 280.5,241.5C 279.205,240.512 277.872,239.512 276.5,238.5C 273.861,236.527 271.527,234.194 269.5,231.5C 268.588,227.869 268.421,224.203 269,220.5C 269.77,221.598 270.603,221.598 271.5,220.5 Z"/></g>
<g><path style="opacity:0.004" fill="#b93a7a" d="M 333.5,233.5 C 334.833,234.167 334.833,234.167 333.5,233.5 Z"/></g>
<g><path style="opacity:0.999" fill="#b98f59" d="M 353.5,221.5 C 354.483,225.298 354.817,229.298 354.5,233.5C 352.64,234.939 350.973,236.605 349.5,238.5C 345.25,241.854 340.917,244.187 336.5,245.5C 336.5,242.5 336.5,239.5 336.5,236.5C 335.5,236.5 334.5,236.5 333.5,236.5C 338.266,234.613 342.599,231.946 346.5,228.5C 349.833,227.167 352.167,224.833 353.5,221.5 Z"/></g>
<g><path style="opacity:0.004" fill="#ba3c79" d="M 293.5,234.5 C 294.5,234.833 295.167,235.5 295.5,236.5C 294.833,236.5 294.167,236.5 293.5,236.5C 293.5,235.833 293.5,235.167 293.5,234.5 Z"/></g>
<g><path style="opacity:0.999" fill="#e2cd85" d="M 326.5,248.5 C 324.139,248.674 321.806,249.007 319.5,249.5C 319.5,245.833 319.5,242.167 319.5,238.5C 318.5,238.5 317.5,238.5 316.5,238.5C 316.5,238.167 316.5,237.833 316.5,237.5C 318.5,236.833 320.5,236.167 322.5,235.5C 324.371,235.141 325.871,234.141 327,232.5C 327.311,237.76 327.144,243.093 326.5,248.5 Z"/></g>
<g><path style="opacity:0.014" fill="#bb427a" d="M 330.5,236.5 C 330.5,235.833 330.833,235.5 331.5,235.5C 332.167,235.833 332.833,236.167 333.5,236.5C 333.158,237.338 332.492,237.672 331.5,237.5C 331.5,236.833 331.167,236.5 330.5,236.5 Z"/></g>
<g><path style="opacity:0.972" fill="#ca9073" d="M 289.5,235.5 C 290.959,235.433 292.292,235.766 293.5,236.5C 293.5,236.833 293.5,237.167 293.5,237.5C 291.612,239.988 290.945,242.988 291.5,246.5C 289.847,246.34 288.514,245.674 287.5,244.5C 288.5,244.5 289.5,244.5 290.5,244.5C 290.736,241.391 290.403,238.391 289.5,235.5 Z"/></g>
<g><path style="opacity:0.004" fill="#b73476" d="M 233.5,237.5 C 232.833,238.167 232.833,238.167 233.5,237.5 Z"/></g>
<g><path style="opacity:0.004" fill="#b83777" d="M 276.5,238.5 C 275.833,239.167 275.833,239.167 276.5,238.5 Z"/></g>
<g><path style="opacity:0.004" fill="#b93b7a" d="M 349.5,238.5 C 350.833,239.167 350.833,239.167 349.5,238.5 Z"/></g>
<g><path style="opacity:0.016" fill="#c2567c" d="M 256.5,239.5 C 262.466,240.447 268.466,241.114 274.5,241.5C 274.64,243.124 273.973,244.29 272.5,245C 269.854,245.497 267.187,245.664 264.5,245.5C 266.042,244.837 267.709,244.17 269.5,243.5C 264.974,242.407 260.641,241.073 256.5,239.5 Z"/></g>
<g><path style="opacity:0.004" fill="#b83778" d="M 280.5,241.5 C 279.833,242.167 279.833,242.167 280.5,241.5 Z"/></g>
<g><path style="opacity:0.946" fill="#e4d087" d="M 253.5,238.5 C 254.791,238.263 255.791,238.596 256.5,239.5C 260.641,241.073 264.974,242.407 269.5,243.5C 267.709,244.17 266.042,244.837 264.5,245.5C 264.167,245.5 263.833,245.5 263.5,245.5C 259.5,245.5 255.5,245.5 251.5,245.5C 250.99,242.612 251.656,240.279 253.5,238.5 Z"/></g>
<g><path style="opacity:0.148" fill="#bd5774" d="M 241.5,243.5 C 244.877,243.959 248.211,244.626 251.5,245.5C 255.5,245.5 259.5,245.5 263.5,245.5C 258.35,246.651 253.016,246.817 247.5,246C 245.148,245.76 243.148,244.927 241.5,243.5 Z"/></g>
<g><path style="opacity:0.035" fill="#bd4c79" d="M 336.5,245.5 C 334.208,247.267 331.542,248.267 328.5,248.5C 330.792,246.733 333.458,245.733 336.5,245.5 Z"/></g>
<g><path style="opacity:0.093" fill="#bb4279" d="M 291.5,246.5 C 293.786,246.595 295.786,247.262 297.5,248.5C 295.102,248.741 293.102,248.074 291.5,246.5 Z"/></g>
<g><path style="opacity:0.261" fill="#c3587e" d="M 298.5,248.5 C 299.167,248.5 299.833,248.5 300.5,248.5C 306.789,249.372 313.122,249.705 319.5,249.5C 321.806,249.007 324.139,248.674 326.5,248.5C 326.833,248.5 327.167,248.5 327.5,248.5C 326.737,249.268 325.737,249.768 324.5,250C 316.833,250.667 309.167,250.667 301.5,250C 300.263,249.768 299.263,249.268 298.5,248.5 Z"/></g>
<g><path style="opacity:0.059" fill="#b63471" d="M 169.5,289.5 C 166.098,289.342 162.764,289.676 159.5,290.5C 159.611,289.883 159.944,289.383 160.5,289C 163.696,288.195 166.696,288.362 169.5,289.5 Z"/></g>
<g><path style="opacity:0.081" fill="#b73972" d="M 189.5,289.5 C 190.793,288.842 192.293,288.508 194,288.5C 196.544,288.336 198.71,289.003 200.5,290.5C 196.881,289.756 193.215,289.423 189.5,289.5 Z"/></g>
<g><path style="opacity:0.069" fill="#bc4776" d="M 292.5,290.5 C 288.484,289.257 284.484,289.257 280.5,290.5C 280.611,289.883 280.944,289.383 281.5,289C 283,288.833 284.5,288.667 286,288.5C 288.544,288.336 290.71,289.003 292.5,290.5 Z"/></g>
<g><path style="opacity:0.823" fill="#b7575f" d="M 129.5,291.5 C 126.946,290.612 124.279,290.279 121.5,290.5C 124.187,288.026 127.187,287.859 130.5,290C 129.944,290.383 129.611,290.883 129.5,291.5 Z"/></g>
<g><path style="opacity:0.004" fill="#b52f73" d="M 186.5,290.5 C 185.833,289.167 185.833,289.167 186.5,290.5 Z"/></g>
<g><path style="opacity:0.759" fill="#ca787a" d="M 350.5,295.5 C 350.5,293.833 350.5,292.167 350.5,290.5C 344.167,290.5 337.833,290.5 331.5,290.5C 331.5,292.167 331.5,293.833 331.5,295.5C 328.866,293.46 328.866,291.293 331.5,289C 337.833,288.333 344.167,288.333 350.5,289C 351.811,291.274 351.811,293.44 350.5,295.5 Z"/></g>
<g><path style="opacity:0.769" fill="#cf8080" d="M 391.5,295.5 C 391.5,293.833 391.5,292.167 391.5,290.5C 385.167,290.5 378.833,290.5 372.5,290.5C 372.5,292.167 372.5,293.833 372.5,295.5C 371.189,293.44 371.189,291.274 372.5,289C 378.833,288.333 385.167,288.333 391.5,289C 394.134,291.293 394.134,293.46 391.5,295.5 Z"/></g>
<g><path style="opacity:0.791" fill="#d08183" d="M 412.5,290.5 C 407.833,290.5 403.167,290.5 398.5,290.5C 398.5,290.167 398.5,289.833 398.5,289.5C 400.134,288.839 401.967,288.506 404,288.5C 407.15,288.36 409.983,289.027 412.5,290.5 Z"/></g>
<g><path style="opacity:0.957" fill="#b9854a" d="M 121.5,290.5 C 124.279,290.279 126.946,290.612 129.5,291.5C 129.5,291.833 129.5,292.167 129.5,292.5C 129.41,295.152 130.076,297.485 131.5,299.5C 131.657,300.873 131.49,302.207 131,303.5C 129.326,299.979 128.16,296.313 127.5,292.5C 126.167,292.5 124.833,292.5 123.5,292.5C 123.334,300.84 123.5,309.173 124,317.5C 124.168,309.479 124.668,301.479 125.5,293.5C 128.429,301.119 131.262,308.785 134,316.5C 137.192,309.425 139.692,302.092 141.5,294.5C 140.778,294.918 140.278,295.584 140,296.5C 139.51,295.207 139.343,293.873 139.5,292.5C 139.5,292.167 139.5,291.833 139.5,291.5C 141.717,290.631 144.05,290.298 146.5,290.5C 146.5,300.167 146.5,309.833 146.5,319.5C 144.833,319.5 143.167,319.5 141.5,319.5C 140.412,316.556 140.412,313.556 141.5,310.5C 141.5,309.5 141.5,308.5 141.5,307.5C 141.5,306.833 141.167,306.5 140.5,306.5C 139.596,307.209 139.263,308.209 139.5,309.5C 139.5,309.833 139.5,310.167 139.5,310.5C 138.076,312.515 137.41,314.848 137.5,317.5C 137.586,318.496 137.252,319.329 136.5,320C 134.741,320.798 133.074,320.631 131.5,319.5C 130.215,316.979 129.548,314.313 129.5,311.5C 129.483,309.435 129.15,307.435 128.5,305.5C 128.539,304.244 128.039,303.244 127,302.5C 126.501,308.157 126.334,313.824 126.5,319.5C 124.833,319.5 123.167,319.5 121.5,319.5C 121.5,309.833 121.5,300.167 121.5,290.5 Z"/></g>
<g><path style="opacity:0.925" fill="#b95f60" d="M 141.5,319.5 C 143.167,319.5 144.833,319.5 146.5,319.5C 146.5,309.833 146.5,300.167 146.5,290.5C 144.05,290.298 141.717,290.631 139.5,291.5C 139.685,289.11 141.018,288.11 143.5,288.5C 145.374,288.39 146.874,289.056 148,290.5C 148.667,299.833 148.667,309.167 148,318.5C 146.03,320.668 143.863,321.002 141.5,319.5 Z"/></g>
<g><path style="opacity:0.989" fill="#bd715e" d="M 169.5,289.5 C 172.263,289.744 174.429,291.077 176,293.5C 176.667,300.833 176.667,308.167 176,315.5C 174.516,319.488 171.683,321.154 167.5,320.5C 167.918,319.778 168.584,319.278 169.5,319C 158.959,317.386 158.959,316.386 169.5,316C 170.667,315.5 171.5,314.667 172,313.5C 172.915,307.056 172.581,300.723 171,294.5C 167.054,291.636 163.388,291.969 160,295.5C 158.768,300.721 158.101,306.054 158,311.5C 157.097,305.719 157.43,300.053 159,294.5C 162.541,292.543 166.041,290.876 169.5,289.5 Z"/></g>
<g><path style="opacity:0.99" fill="#c2875d" d="M 189.5,289.5 C 193.215,289.423 196.881,289.756 200.5,290.5C 201.492,290.328 202.158,290.662 202.5,291.5C 202.66,293.153 203.326,294.486 204.5,295.5C 205.807,301.734 205.807,308.068 204.5,314.5C 203.596,315.209 203.263,316.209 203.5,317.5C 202.833,317.5 202.5,317.833 202.5,318.5C 197.785,320.545 192.785,321.045 187.5,320C 184.892,318.622 183.392,316.455 183,313.5C 182.333,307.833 182.333,302.167 183,296.5C 183.424,293.975 184.59,291.975 186.5,290.5C 187.391,289.89 188.391,289.557 189.5,289.5 Z M 196.5,296.5 C 197.79,302.136 197.79,307.802 196.5,313.5C 194.833,313.5 193.167,313.5 191.5,313.5C 190.6,308.228 190.267,302.895 190.5,297.5C 192.379,296.659 194.379,296.325 196.5,296.5 Z"/></g>
<g><path style="opacity:0.986" fill="#c89b60" d="M 220.5,293.5 C 220.649,294.552 220.483,295.552 220,296.5C 218.028,295.695 216.528,294.361 215.5,292.5C 214.167,300.833 214.167,309.167 215.5,317.5C 216.331,310.524 216.831,303.524 217,296.5C 218,298.5 219,300.5 220,302.5C 220.335,299.81 221.501,299.143 223.5,300.5C 223.312,302.103 223.812,303.437 225,304.5C 225.499,299.511 225.666,294.511 225.5,289.5C 227.167,288.167 228.833,288.167 230.5,289.5C 230.5,299.5 230.5,309.5 230.5,319.5C 228.5,319.5 226.5,319.5 224.5,319.5C 223.559,317.95 222.893,316.284 222.5,314.5C 222.672,313.508 222.338,312.842 221.5,312.5C 221.5,312.167 221.5,311.833 221.5,311.5C 220.955,309.407 220.122,307.407 219,305.5C 218.501,310.155 218.334,314.821 218.5,319.5C 216.5,319.5 214.5,319.5 212.5,319.5C 212.5,309.5 212.5,299.5 212.5,289.5C 216.583,287.547 219.25,288.88 220.5,293.5 Z"/></g>
<g><path style="opacity:0.485" fill="#c0696b" d="M 230.5,289.5 C 231.494,299.653 231.828,309.986 231.5,320.5C 228.941,320.802 226.607,320.468 224.5,319.5C 226.5,319.5 228.5,319.5 230.5,319.5C 230.5,309.5 230.5,299.5 230.5,289.5 Z"/></g>
<g><path style="opacity:0.951" fill="#cda963" d="M 245.5,290.5 C 245.5,298.5 245.5,306.5 245.5,314.5C 248.833,314.5 252.167,314.5 255.5,314.5C 255.5,316.167 255.5,317.833 255.5,319.5C 250.5,319.5 245.5,319.5 240.5,319.5C 240.5,309.833 240.5,300.167 240.5,290.5C 242.167,290.5 243.833,290.5 245.5,290.5 Z"/></g>
<g><path style="opacity:0.14" fill="#bd5071" d="M 245.5,289.5 C 246.492,297.316 246.826,305.316 246.5,313.5C 249.713,313.19 252.713,313.523 255.5,314.5C 252.167,314.5 248.833,314.5 245.5,314.5C 245.5,306.5 245.5,298.5 245.5,290.5C 245.5,290.167 245.5,289.833 245.5,289.5 Z"/></g>
<g><path style="opacity:0.922" fill="#d0a969" d="M 268.5,289.5 C 268.5,299.5 268.5,309.5 268.5,319.5C 266.5,319.5 264.5,319.5 262.5,319.5C 262.5,309.5 262.5,299.5 262.5,289.5C 264.5,288.167 266.5,288.167 268.5,289.5 Z"/></g>
<g><path style="opacity:0.997" fill="#d09e70" d="M 292.5,290.5 C 294.833,290.833 296.167,292.167 296.5,294.5C 296.366,296.292 296.699,297.958 297.5,299.5C 295.721,301.344 293.388,302.01 290.5,301.5C 290.248,297.065 288.081,295.732 284,297.5C 283.501,302.489 283.334,307.489 283.5,312.5C 283.791,313.649 284.624,314.316 286,314.5C 287.07,314.472 287.903,314.139 288.5,313.5C 290.256,312.448 290.923,310.781 290.5,308.5C 288.833,308.5 287.167,308.5 285.5,308.5C 285.5,306.833 285.5,305.167 285.5,303.5C 298.685,300.121 302.185,304.787 296,317.5C 293.604,320.013 290.604,321.013 287,320.5C 283.852,320.722 281.019,320.055 278.5,318.5C 278.34,316.847 277.674,315.514 276.5,314.5C 275.202,307.864 275.202,301.197 276.5,294.5C 277.906,294.027 278.573,293.027 278.5,291.5C 278.842,290.662 279.508,290.328 280.5,290.5C 284.484,289.257 288.484,289.257 292.5,290.5 Z"/></g>
<g><path style="opacity:0.316" fill="#c77675" d="M 305.5,289.5 C 305.5,299.5 305.5,309.5 305.5,319.5C 307.167,319.5 308.833,319.5 310.5,319.5C 310.183,315.298 310.517,311.298 311.5,307.5C 311.5,311.833 311.5,316.167 311.5,320.5C 309.167,320.5 306.833,320.5 304.5,320.5C 304.172,309.986 304.506,299.653 305.5,289.5 Z"/></g>
<g><path style="opacity:0.959" fill="#d6ac75" d="M 310.5,289.5 C 310.5,293.833 310.5,298.167 310.5,302.5C 313.385,302.806 316.052,302.473 318.5,301.5C 318.5,297.833 318.5,294.167 318.5,290.5C 318.97,289.307 319.97,288.64 321.5,288.5C 322.994,288.709 324.161,289.376 325,290.5C 325.667,300.167 325.667,309.833 325,319.5C 322.959,320.423 320.792,320.756 318.5,320.5C 318.5,320.167 318.5,319.833 318.5,319.5C 318.5,315.5 318.5,311.5 318.5,307.5C 316.5,307.5 314.5,307.5 312.5,307.5C 312.167,307.5 311.833,307.5 311.5,307.5C 310.517,311.298 310.183,315.298 310.5,319.5C 308.833,319.5 307.167,319.5 305.5,319.5C 305.5,309.5 305.5,299.5 305.5,289.5C 307.167,288.167 308.833,288.167 310.5,289.5 Z"/></g>
<g><path style="opacity:0.18" fill="#bf5177" d="M 318.5,290.5 C 318.5,294.167 318.5,297.833 318.5,301.5C 316.5,301.5 314.5,301.5 312.5,301.5C 313.919,300.549 315.585,300.216 317.5,300.5C 317.187,296.958 317.521,293.625 318.5,290.5 Z"/></g>
<g><path style="opacity:0.993" fill="#e5cf85" d="M 391.5,295.5 C 389.167,295.5 386.833,295.5 384.5,295.5C 384.5,303.5 384.5,311.5 384.5,319.5C 382.833,319.5 381.167,319.5 379.5,319.5C 379.5,311.5 379.5,303.5 379.5,295.5C 377.167,295.5 374.833,295.5 372.5,295.5C 372.5,293.833 372.5,292.167 372.5,290.5C 378.833,290.5 385.167,290.5 391.5,290.5C 391.5,292.167 391.5,293.833 391.5,295.5 Z"/></g>
<g><path style="opacity:0.184" fill="#c7657e" d="M 398.5,289.5 C 398.5,289.833 398.5,290.167 398.5,290.5C 398.5,300.167 398.5,309.833 398.5,319.5C 400.5,319.5 402.5,319.5 404.5,319.5C 404.5,319.833 404.5,320.167 404.5,320.5C 402.167,320.5 399.833,320.5 397.5,320.5C 397.172,309.986 397.506,299.653 398.5,289.5 Z"/></g>
<g><path style="opacity:0.991" fill="#e6c88a" d="M 398.5,290.5 C 403.167,290.5 407.833,290.5 412.5,290.5C 413.833,290.5 414.5,291.167 414.5,292.5C 415.449,297.74 415.782,303.073 415.5,308.5C 415.167,309.167 414.833,309.833 414.5,310.5C 413.646,311.632 413.646,312.965 414.5,314.5C 414.66,316.153 415.326,317.486 416.5,318.5C 415.848,319.725 414.681,320.392 413,320.5C 409.737,321.068 408.237,319.734 408.5,316.5C 408.262,314.355 407.262,312.688 405.5,311.5C 404.526,313.743 404.192,316.076 404.5,318.5C 404.5,318.833 404.5,319.167 404.5,319.5C 402.5,319.5 400.5,319.5 398.5,319.5C 398.5,309.833 398.5,300.167 398.5,290.5 Z M 409.5,297.5 C 409.675,299.621 409.341,301.621 408.5,303.5C 407.833,303.5 407.5,303.833 407.5,304.5C 406.348,305.625 405.348,305.625 404.5,304.5C 405.317,302.031 405.817,299.365 406,296.5C 407.011,297.337 408.178,297.67 409.5,297.5 Z"/></g>
<g><path style="opacity:0.993" fill="#e8c88f" d="M 436.5,290.5 C 437.394,296.177 439.061,301.51 441.5,306.5C 441.5,307.167 441.5,307.833 441.5,308.5C 441.259,310.898 441.926,312.898 443.5,314.5C 443.751,316.17 444.418,317.67 445.5,319C 445.272,319.399 444.938,319.565 444.5,319.5C 442.396,319.799 440.396,319.466 438.5,318.5C 438.152,312.806 435.485,311.139 430.5,313.5C 429.833,315.5 429.167,317.5 428.5,319.5C 426.5,319.5 424.5,319.5 422.5,319.5C 422.5,318.5 422.5,317.5 422.5,316.5C 422.557,315.391 422.89,314.391 423.5,313.5C 425.483,310.201 426.483,306.534 426.5,302.5C 426.216,300.585 426.549,298.919 427.5,297.5C 429.097,295.152 430.097,292.486 430.5,289.5C 431.097,288.861 431.93,288.528 433,288.5C 434.699,288.387 435.866,289.053 436.5,290.5 Z M 434.5,306.5 C 434.158,307.338 433.492,307.672 432.5,307.5C 432.409,305.302 433.075,304.969 434.5,306.5 Z"/></g>
<g><path style="opacity:0.983" fill="#eac893" d="M 454.5,289.5 C 454.796,291.403 455.463,293.07 456.5,294.5C 456.5,294.833 456.5,295.167 456.5,295.5C 456.171,298.228 456.837,300.562 458.5,302.5C 458.5,302.833 458.5,303.167 458.5,303.5C 458.491,305.308 458.991,306.975 460,308.5C 460.49,307.207 460.657,305.873 460.5,304.5C 460.557,303.391 460.89,302.391 461.5,301.5C 462.924,299.485 463.59,297.152 463.5,294.5C 463.476,289.165 465.81,287.499 470.5,289.5C 470.007,291.806 469.674,294.139 469.5,296.5C 469.167,297.833 468.833,299.167 468.5,300.5C 467.262,302.214 466.595,304.214 466.5,306.5C 466.5,306.833 466.5,307.167 466.5,307.5C 466.167,307.5 465.833,307.5 465.5,307.5C 465.44,306.957 465.107,306.624 464.5,306.5C 463.304,308.145 462.304,309.811 461.5,311.5C 460.9,312.9 459.9,313.9 458.5,314.5C 457.596,313.791 457.263,312.791 457.5,311.5C 456.943,306.835 455.61,302.502 453.5,298.5C 452.732,297.737 452.232,296.737 452,295.5C 451.31,294.262 450.81,294.262 450.5,295.5C 449.833,294.5 449.167,293.5 448.5,292.5C 448.33,291.178 448.663,290.011 449.5,289C 451.387,288.22 453.054,288.387 454.5,289.5 Z"/></g>
<g><path style="opacity:0.043" fill="#c04c7f" d="M 454.5,289.5 C 456.213,290.635 456.88,292.302 456.5,294.5C 455.463,293.07 454.796,291.403 454.5,289.5 Z"/></g>
<g><path style="opacity:0.979" fill="#f9eca2" d="M 501.5,290.5 C 503.167,290.5 504.833,290.5 506.5,290.5C 506.174,298.684 506.508,306.684 507.5,314.5C 510.833,314.5 514.167,314.5 517.5,314.5C 518.833,316.167 518.833,317.833 517.5,319.5C 512.167,319.5 506.833,319.5 501.5,319.5C 501.5,309.833 501.5,300.167 501.5,290.5 Z"/></g>
<g><path style="opacity:0.798" fill="#e5b496" d="M 507.5,290.5 C 507.5,298.5 507.5,306.5 507.5,314.5C 506.508,306.684 506.174,298.684 506.5,290.5C 504.833,290.5 503.167,290.5 501.5,290.5C 501.5,290.167 501.5,289.833 501.5,289.5C 502.097,288.861 502.93,288.528 504,288.5C 505.699,288.387 506.866,289.053 507.5,290.5 Z"/></g>
<g><path style="opacity:0.565" fill="#c57d6a" d="M 245.5,289.5 C 245.5,289.833 245.5,290.167 245.5,290.5C 243.833,290.5 242.167,290.5 240.5,290.5C 240.5,300.167 240.5,309.833 240.5,319.5C 245.5,319.5 250.5,319.5 255.5,319.5C 255.5,317.833 255.5,316.167 255.5,314.5C 256.461,316.265 256.795,318.265 256.5,320.5C 250.833,320.5 245.167,320.5 239.5,320.5C 239.334,310.161 239.5,299.828 240,289.5C 241.943,288.193 243.777,288.193 245.5,289.5 Z"/></g>
<g><path style="opacity:0.024" fill="#c04f80" d="M 470.5,289.5 C 471.867,292.012 471.534,294.345 469.5,296.5C 469.674,294.139 470.007,291.806 470.5,289.5 Z"/></g>
<g><path style="opacity:0.98" fill="#be8655" d="M 169.5,289.5 C 166.041,290.876 162.541,292.543 159,294.5C 157.43,300.053 157.097,305.719 158,311.5C 158.101,306.054 158.768,300.721 160,295.5C 163.388,291.969 167.054,291.636 171,294.5C 172.581,300.723 172.915,307.056 172,313.5C 171.5,314.667 170.667,315.5 169.5,316C 158.959,316.386 158.959,317.386 169.5,319C 168.584,319.278 167.918,319.778 167.5,320.5C 164.813,320.664 162.146,320.497 159.5,320C 157.574,319.578 156.574,318.411 156.5,316.5C 155.57,309.223 155.236,301.89 155.5,294.5C 155.833,292.167 157.167,290.833 159.5,290.5C 162.764,289.676 166.098,289.342 169.5,289.5 Z M 167.5,313.5 C 165.708,313.634 164.042,313.301 162.5,312.5C 162.334,307.489 162.501,302.489 163,297.5C 165,296.167 167,296.167 169,297.5C 169.667,302.5 169.667,307.5 169,312.5C 168.617,313.056 168.117,313.389 167.5,313.5 Z"/></g>
<g><path style="opacity:0.997" fill="#c48463" d="M 220.5,293.5 C 221.344,295.843 222.344,298.176 223.5,300.5C 221.501,299.143 220.335,299.81 220,302.5C 219,300.5 218,298.5 217,296.5C 216.831,303.524 216.331,310.524 215.5,317.5C 214.167,309.167 214.167,300.833 215.5,292.5C 216.528,294.361 218.028,295.695 220,296.5C 220.483,295.552 220.649,294.552 220.5,293.5 Z"/></g>
<g><path style="opacity:0.329" fill="#c0676a" d="M 225.5,289.5 C 225.666,294.511 225.499,299.511 225,304.5C 223.812,303.437 223.312,302.103 223.5,300.5C 224.167,296.833 224.833,293.167 225.5,289.5 Z"/></g>
<g><path style="opacity:0.994" fill="#c16c6c" d="M 242.5,292.5 C 243.492,300.316 243.826,308.316 243.5,316.5C 246.85,316.335 250.183,316.502 253.5,317C 249.848,317.499 246.182,317.665 242.5,317.5C 242.5,309.167 242.5,300.833 242.5,292.5 Z"/></g>
<g><path style="opacity:0.973" fill="#d08482" d="M 410.5,308.5 C 410.013,309.473 409.513,310.473 409,311.5C 406.894,309.709 404.394,309.042 401.5,309.5C 399.798,309.847 399.465,304.18 400.5,292.5C 404.182,292.335 407.848,292.501 411.5,293C 412,293.5 412.5,294 413,294.5C 413.667,298.833 413.667,303.167 413,307.5C 412.329,308.252 411.496,308.586 410.5,308.5 Z M 409.5,297.5 C 409.675,299.621 409.341,301.621 408.5,303.5C 407.833,303.5 407.5,303.833 407.5,304.5C 406.348,305.625 405.348,305.625 404.5,304.5C 405.317,302.031 405.817,299.365 406,296.5C 407.011,297.337 408.178,297.67 409.5,297.5 Z"/></g>
<g><path style="opacity:0.767" fill="#d17d88" d="M 489.5,292.5 C 487.296,293.505 484.296,293.838 480.5,293.5C 480.5,297.167 480.5,300.833 480.5,304.5C 483.385,304.194 486.052,304.527 488.5,305.5C 485.833,305.5 483.167,305.5 480.5,305.5C 480.5,309.167 480.5,312.833 480.5,316.5C 483.85,316.335 487.183,316.502 490.5,317C 486.848,317.499 483.182,317.665 479.5,317.5C 479.5,309.167 479.5,300.833 479.5,292.5C 482.833,292.5 486.167,292.5 489.5,292.5 Z"/></g>
<g><path style="opacity:0.873" fill="#db9890" d="M 503.5,292.5 C 504.492,300.316 504.826,308.316 504.5,316.5C 507.85,316.335 511.183,316.502 514.5,317C 510.848,317.499 507.182,317.665 503.5,317.5C 503.5,309.167 503.5,300.833 503.5,292.5 Z"/></g>
<g><path style="opacity:0.102" fill="#ba4b6e" d="M 202.5,291.5 C 204.104,292.287 204.771,293.62 204.5,295.5C 203.326,294.486 202.66,293.153 202.5,291.5 Z"/></g>
<g><path style="opacity:0.239" fill="#c05a74" d="M 278.5,291.5 C 278.573,293.027 277.906,294.027 276.5,294.5C 276.427,292.973 277.094,291.973 278.5,291.5 Z"/></g>
<g><path style="opacity:0.976" fill="#dab27b" d="M 350.5,295.5 C 348.167,295.5 345.833,295.5 343.5,295.5C 343.5,303.5 343.5,311.5 343.5,319.5C 341.5,319.5 339.5,319.5 337.5,319.5C 336.725,312.186 336.725,304.686 337.5,297C 335.292,296.809 333.292,296.309 331.5,295.5C 331.5,293.833 331.5,292.167 331.5,290.5C 337.833,290.5 344.167,290.5 350.5,290.5C 350.5,292.167 350.5,293.833 350.5,295.5 Z"/></g>
<g><path style="opacity:0.962" fill="#cb7c79" d="M 333.5,293.5 C 342.778,292.244 345.445,292.244 341.5,293.5C 341.167,325.5 340.833,325.5 340.5,293.5C 338.167,293.5 335.833,293.5 333.5,293.5 Z"/></g>
<g><path style="opacity:0.993" fill="#cf837f" d="M 374.5,293.5 C 383.778,292.244 386.445,292.244 382.5,293.5C 382.167,325.5 381.833,325.5 381.5,293.5C 379.167,293.5 376.833,293.5 374.5,293.5 Z"/></g>
<g><path style="opacity:0.986" fill="#e7cf8a" d="M 410.5,308.5 C 407.5,308.5 404.5,308.5 401.5,308.5C 401.5,303.5 401.5,298.5 401.5,293.5C 412.015,291.862 415.515,296.195 412,306.5C 411.283,307.044 410.783,307.711 410.5,308.5 Z M 409.5,297.5 C 409.675,299.621 409.341,301.621 408.5,303.5C 407.833,303.5 407.5,303.833 407.5,304.5C 406.348,305.625 405.348,305.625 404.5,304.5C 405.317,302.031 405.817,299.365 406,296.5C 407.011,297.337 408.178,297.67 409.5,297.5 Z"/></g>
<g><path style="opacity:0.949" fill="#f6e99d" d="M 477.5,290.5 C 482.179,290.334 486.845,290.501 491.5,291C 490.584,291.278 489.918,291.778 489.5,292.5C 486.167,292.5 482.833,292.5 479.5,292.5C 479.5,300.833 479.5,309.167 479.5,317.5C 483.182,317.665 486.848,317.499 490.5,317C 487.183,316.502 483.85,316.335 480.5,316.5C 480.5,312.833 480.5,309.167 480.5,305.5C 483.167,305.5 485.833,305.5 488.5,305.5C 489.222,305.082 489.722,304.416 490,303.5C 490.49,304.793 490.657,306.127 490.5,307.5C 487.941,307.198 485.607,307.532 483.5,308.5C 483.5,308.833 483.5,309.167 483.5,309.5C 483.5,311.167 483.5,312.833 483.5,314.5C 486.833,314.5 490.167,314.5 493.5,314.5C 493.5,316.167 493.5,317.833 493.5,319.5C 488.167,319.5 482.833,319.5 477.5,319.5C 477.5,309.833 477.5,300.167 477.5,290.5 Z"/></g>
<g><path style="opacity:0.971" fill="#e6b594" d="M 483.5,297.5 C 483.5,298.833 483.5,300.167 483.5,301.5C 486.167,301.5 488.833,301.5 491.5,301.5C 492.768,303.67 492.768,305.837 491.5,308C 488.854,308.497 486.187,308.664 483.5,308.5C 485.607,307.532 487.941,307.198 490.5,307.5C 490.657,306.127 490.49,304.793 490,303.5C 489.722,304.416 489.222,305.082 488.5,305.5C 486.052,304.527 483.385,304.194 480.5,304.5C 480.5,300.833 480.5,297.167 480.5,293.5C 484.296,293.838 487.296,293.505 489.5,292.5C 489.918,291.778 490.584,291.278 491.5,291C 486.845,290.501 482.179,290.334 477.5,290.5C 477.5,290.167 477.5,289.833 477.5,289.5C 482.64,288.512 487.974,288.179 493.5,288.5C 494.371,291.272 494.371,293.938 493.5,296.5C 489.958,296.187 486.625,296.521 483.5,297.5 Z"/></g>
<g><path style="opacity:0.698" fill="#ce7a84" d="M 430.5,289.5 C 430.097,292.486 429.097,295.152 427.5,297.5C 427.603,294.364 428.603,291.698 430.5,289.5 Z"/></g>
<g><path style="opacity:0.926" fill="#b96958" d="M 131.5,299.5 C 132.41,301.019 133.243,302.685 134,304.5C 135.894,300.509 137.728,296.509 139.5,292.5C 139.343,293.873 139.51,295.207 140,296.5C 140.278,295.584 140.778,294.918 141.5,294.5C 139.692,302.092 137.192,309.425 134,316.5C 131.262,308.785 128.429,301.119 125.5,293.5C 124.668,301.479 124.168,309.479 124,317.5C 123.5,309.173 123.334,300.84 123.5,292.5C 124.833,292.5 126.167,292.5 127.5,292.5C 128.16,296.313 129.326,299.979 131,303.5C 131.49,302.207 131.657,300.873 131.5,299.5 Z"/></g>
<g><path style="opacity:0.784" fill="#b85c5e" d="M 129.5,292.5 C 131.163,294.438 131.829,296.772 131.5,299.5C 130.076,297.485 129.41,295.152 129.5,292.5 Z"/></g>
<g><path style="opacity:0.164" fill="#c25a7a" d="M 350.5,295.5 C 348.735,296.461 346.735,296.795 344.5,296.5C 344.5,304.5 344.5,312.5 344.5,320.5C 341.941,320.802 339.607,320.468 337.5,319.5C 339.5,319.5 341.5,319.5 343.5,319.5C 343.5,311.5 343.5,303.5 343.5,295.5C 345.833,295.5 348.167,295.5 350.5,295.5 Z"/></g>
<g><path style="opacity:0.543" fill="#c86e7e" d="M 372.5,295.5 C 374.833,295.5 377.167,295.5 379.5,295.5C 379.5,303.5 379.5,311.5 379.5,319.5C 381.167,319.5 382.833,319.5 384.5,319.5C 384.5,311.5 384.5,303.5 384.5,295.5C 386.833,295.5 389.167,295.5 391.5,295.5C 389.708,296.309 387.708,296.809 385.5,297C 386.647,304.42 386.813,311.92 386,319.5C 383.619,320.435 381.119,320.768 378.5,320.5C 378.5,312.5 378.5,304.5 378.5,296.5C 376.265,296.795 374.265,296.461 372.5,295.5 Z"/></g>
<g><path style="opacity:0.004" fill="#be487e" d="M 448.5,292.5 C 449.167,293.5 449.833,294.5 450.5,295.5C 450.5,296.5 450.5,297.5 450.5,298.5C 448.926,296.898 448.259,294.898 448.5,292.5 Z"/></g>
<g><path style="opacity:0.989" fill="#eed795" d="M 453.5,298.5 C 454.057,303.165 455.39,307.498 457.5,311.5C 457.263,312.791 457.596,313.791 458.5,314.5C 458.281,315.675 458.614,316.675 459.5,317.5C 461.086,315.827 461.753,313.827 461.5,311.5C 462.304,309.811 463.304,308.145 464.5,306.5C 465.107,306.624 465.44,306.957 465.5,307.5C 465.007,309.806 464.674,312.139 464.5,314.5C 464.768,316.099 464.434,317.432 463.5,318.5C 461.192,319.714 458.859,319.714 456.5,318.5C 455.122,312.96 453.455,307.627 451.5,302.5C 450.566,301.432 450.232,300.099 450.5,298.5C 450.5,297.5 450.5,296.5 450.5,295.5C 450.81,294.262 451.31,294.262 452,295.5C 452.232,296.737 452.732,297.737 453.5,298.5 Z"/></g>
<g><path style="opacity:0.189" fill="#b74469" d="M 155.5,294.5 C 155.236,301.89 155.57,309.223 156.5,316.5C 155.883,316.389 155.383,316.056 155,315.5C 154.179,308.321 154.345,301.321 155.5,294.5 Z"/></g>
<g><path style="opacity:0.794" fill="#daa486" d="M 404.5,296.5 C 404.5,299.167 404.5,301.833 404.5,304.5C 405.348,305.625 406.348,305.625 407.5,304.5C 407.5,305.167 407.833,305.5 408.5,305.5C 407.081,306.451 405.415,306.784 403.5,306.5C 403.187,302.958 403.521,299.625 404.5,296.5 Z"/></g>
<g><path style="opacity:0.051" fill="#c04f7d" d="M 409.5,297.5 C 408.178,297.67 407.011,297.337 406,296.5C 405.817,299.365 405.317,302.031 404.5,304.5C 404.5,301.833 404.5,299.167 404.5,296.5C 406.455,295.07 408.121,295.403 409.5,297.5 Z"/></g>
<g><path style="opacity:0.843" fill="#d69485" d="M 414.5,292.5 C 415.812,294.743 416.478,297.41 416.5,300.5C 416.497,303.355 416.164,306.022 415.5,308.5C 415.782,303.073 415.449,297.74 414.5,292.5 Z"/></g>
<g><path style="opacity:1" fill="#c19552" d="M 173.5,295.5 C 174.818,298.258 175.485,301.424 175.5,305C 175.167,308.167 174.833,311.333 174.5,314.5C 173.504,308.202 173.17,301.868 173.5,295.5 Z"/></g>
<g><path style="opacity:1" fill="#c17c61" d="M 192.5,292.5 C 195.655,291.035 198.489,291.701 201,294.5C 202.959,301.192 202.959,307.859 201,314.5C 200.667,308.167 200.333,301.833 200,295.5C 197.806,293.822 195.306,292.822 192.5,292.5 Z"/></g>
<g><path style="opacity:0.82" fill="#c15e75" d="M 296.5,294.5 C 298.345,295.995 298.678,297.662 297.5,299.5C 296.699,297.958 296.366,296.292 296.5,294.5 Z"/></g>
<g><path style="opacity:0.039" fill="#bb3e7d" d="M 483.5,297.5 C 484.404,298.209 484.737,299.209 484.5,300.5C 487.059,300.198 489.393,300.532 491.5,301.5C 488.833,301.5 486.167,301.5 483.5,301.5C 483.5,300.167 483.5,298.833 483.5,297.5 Z"/></g>
<g><path style="opacity:0.975" fill="#b85c5e" d="M 141.5,294.5 C 141.821,292.952 142.821,292.285 144.5,292.5C 144.666,300.84 144.5,309.173 144,317.5C 143.667,309.5 143.333,301.5 143,293.5C 142.617,294.056 142.117,294.389 141.5,294.5 Z"/></g>
<g><path style="opacity:0.995" fill="#c77a71" d="M 282.5,316.5 C 280.589,316.426 279.422,315.426 279,313.5C 278.333,308.167 278.333,302.833 279,297.5C 279.84,293.498 282.34,291.498 286.5,291.5C 288.661,292.035 290.661,292.868 292.5,294C 282.496,291.164 278.162,294.997 279.5,305.5C 279.043,309.653 280.043,313.32 282.5,316.5 Z"/></g>
<g><path style="opacity:0.202" fill="#c96d80" d="M 409.5,297.5 C 410.156,298.622 410.489,299.955 410.5,301.5C 410.415,303.333 409.748,304.666 408.5,305.5C 409.506,304.604 409.506,303.938 408.5,303.5C 409.341,301.621 409.675,299.621 409.5,297.5 Z"/></g>
<g><path style="opacity:0.206" fill="#b94c6b" d="M 190.5,297.5 C 190.267,302.895 190.6,308.228 191.5,313.5C 190.883,313.389 190.383,313.056 190,312.5C 189.184,307.316 189.35,302.316 190.5,297.5 Z"/></g>
<g><path style="opacity:0.796" fill="#cc7183" d="M 436.5,290.5 C 439.076,295.448 440.743,300.781 441.5,306.5C 439.061,301.51 437.394,296.177 436.5,290.5 Z"/></g>
<g><path style="opacity:0.808" fill="#ce7686" d="M 456.5,295.5 C 457.612,297.599 458.279,299.933 458.5,302.5C 456.837,300.562 456.171,298.228 456.5,295.5 Z"/></g>
<g><path style="opacity:0.064" fill="#b83e70" d="M 196.5,296.5 C 197.812,298.743 198.478,301.41 198.5,304.5C 198.333,307.167 198.167,309.833 198,312.5C 197.617,313.056 197.117,313.389 196.5,313.5C 197.79,307.802 197.79,302.136 196.5,296.5 Z"/></g>
<g><path style="opacity:0.984" fill="#c0696a" d="M 227.5,292.5 C 228.657,300.656 228.823,308.99 228,317.5C 227.308,316.975 226.808,316.308 226.5,315.5C 227.467,307.89 227.8,300.223 227.5,292.5 Z"/></g>
<g><path style="opacity:0.565" fill="#d58989" d="M 463.5,294.5 C 463.59,297.152 462.924,299.485 461.5,301.5C 461.41,298.848 462.076,296.515 463.5,294.5 Z"/></g>
<g><path style="opacity:0.617" fill="#ce8f76" d="M 310.5,289.5 C 311.167,293.5 311.833,297.5 312.5,301.5C 314.5,301.5 316.5,301.5 318.5,301.5C 316.052,302.473 313.385,302.806 310.5,302.5C 310.5,298.167 310.5,293.833 310.5,289.5 Z"/></g>
<g><path style="opacity:1" fill="#da9c8b" d="M 453.5,298.5 C 455.61,302.502 456.943,306.835 457.5,311.5C 455.39,307.498 454.057,303.165 453.5,298.5 Z"/></g>
<g><path style="opacity:0.053" fill="#c35781" d="M 468.5,300.5 C 468.741,302.898 468.074,304.898 466.5,306.5C 466.595,304.214 467.262,302.214 468.5,300.5 Z"/></g>
<g><path style="opacity:0.086" fill="#be497f" d="M 507.5,290.5 C 508.492,297.982 508.825,305.648 508.5,313.5C 511.713,313.19 514.713,313.523 517.5,314.5C 514.167,314.5 510.833,314.5 507.5,314.5C 507.5,306.5 507.5,298.5 507.5,290.5 Z"/></g>
<g><path style="opacity:0.029" fill="#c2547f" d="M 434.5,306.5 C 433.075,304.969 432.409,305.302 432.5,307.5C 431.903,307.265 431.57,306.765 431.5,306C 432.713,300.18 433.713,300.346 434.5,306.5 Z"/></g>
<g><path style="opacity:0.048" fill="#b73775" d="M 262.5,289.5 C 262.5,299.5 262.5,309.5 262.5,319.5C 264.5,319.5 266.5,319.5 268.5,319.5C 268.5,309.5 268.5,299.5 268.5,289.5C 269.494,299.653 269.828,309.986 269.5,320.5C 266.833,320.5 264.167,320.5 261.5,320.5C 261.172,309.986 261.506,299.653 262.5,289.5 Z"/></g>
<g><path style="opacity:1" fill="#ca906c" d="M 264.5,292.5 C 265.825,296.276 266.491,300.443 266.5,305C 266.167,309.167 265.833,313.333 265.5,317.5C 264.502,309.193 264.169,300.86 264.5,292.5 Z"/></g>
<g><path style="opacity:0.885" fill="#c66e77" d="M 307.5,292.5 C 308.483,296.298 308.817,300.298 308.5,304.5C 312.5,304.5 316.5,304.5 320.5,304.5C 321.833,304.833 321.833,305.167 320.5,305.5C 316.5,305.5 312.5,305.5 308.5,305.5C 308.666,309.514 308.499,313.514 308,317.5C 307.5,309.173 307.334,300.84 307.5,292.5 Z"/></g>
<g><path style="opacity:0.037" fill="#c35680" d="M 458.5,303.5 C 459.167,303.833 459.833,304.167 460.5,304.5C 460.657,305.873 460.49,307.207 460,308.5C 458.991,306.975 458.491,305.308 458.5,303.5 Z"/></g>
<g><path style="opacity:0.755" fill="#c77573" d="M 287.5,306.5 C 289.607,305.532 291.941,305.198 294.5,305.5C 294.664,308.187 294.497,310.854 294,313.5C 293.503,311.19 293.337,308.857 293.5,306.5C 291.5,306.5 289.5,306.5 287.5,306.5 Z"/></g>
<g><path style="opacity:0.161" fill="#b5326e" d="M 128.5,305.5 C 129.15,307.435 129.483,309.435 129.5,311.5C 128.833,314.167 128.167,316.833 127.5,319.5C 127.181,314.637 127.514,309.97 128.5,305.5 Z"/></g>
<g><path style="opacity:0.914" fill="#d38785" d="M 426.5,302.5 C 426.483,306.534 425.483,310.201 423.5,313.5C 423.682,309.511 424.682,305.844 426.5,302.5 Z"/></g>
<g><path style="opacity:0.041" fill="#b53a6c" d="M 140.5,306.5 C 141.167,306.5 141.5,306.833 141.5,307.5C 141.5,308.5 141.5,309.5 141.5,310.5C 140.833,310.167 140.167,309.833 139.5,309.5C 139.263,308.209 139.596,307.209 140.5,306.5 Z"/></g>
<g><path style="opacity:0.072" fill="#b83e72" d="M 212.5,289.5 C 212.5,299.5 212.5,309.5 212.5,319.5C 214.5,319.5 216.5,319.5 218.5,319.5C 218.334,314.821 218.501,310.155 219,305.5C 220.122,307.407 220.955,309.407 221.5,311.5C 220.883,311.389 220.383,311.056 220,310.5C 219.502,313.817 219.335,317.15 219.5,320.5C 216.833,320.5 214.167,320.5 211.5,320.5C 211.172,309.986 211.506,299.653 212.5,289.5 Z"/></g>
<g><path style="opacity:0.172" fill="#bf5077" d="M 312.5,307.5 C 314.5,307.5 316.5,307.5 318.5,307.5C 318.5,311.5 318.5,315.5 318.5,319.5C 317.518,316.038 317.185,312.371 317.5,308.5C 315.585,308.784 313.919,308.451 312.5,307.5 Z"/></g>
<g><path style="opacity:0.875" fill="#b76b53" d="M 128.5,305.5 C 127.514,309.97 127.181,314.637 127.5,319.5C 125.5,320.833 123.5,320.833 121.5,319.5C 123.167,319.5 124.833,319.5 126.5,319.5C 126.334,313.824 126.501,308.157 127,302.5C 128.039,303.244 128.539,304.244 128.5,305.5 Z"/></g>
<g><path style="opacity:0.051" fill="#bc4a76" d="M 285.5,303.5 C 285.5,305.167 285.5,306.833 285.5,308.5C 287.167,308.5 288.833,308.5 290.5,308.5C 290.923,310.781 290.256,312.448 288.5,313.5C 288.804,312.85 289.137,312.183 289.5,311.5C 284.678,310.497 283.344,307.831 285.5,303.5 Z"/></g>
<g><path style="opacity:0.885" fill="#c96a82" d="M 437.5,306.5 C 438.434,307.568 438.768,308.901 438.5,310.5C 434.818,310.665 431.152,310.499 427.5,310C 430.817,309.502 434.15,309.335 437.5,309.5C 437.5,308.5 437.5,307.5 437.5,306.5 Z"/></g>
<g><path style="opacity:0.004" fill="#b93a7a" d="M 414.5,310.5 C 415.833,311.167 415.833,311.167 414.5,310.5 Z"/></g>
<g><path style="opacity:0.039" fill="#c65e81" d="M 465.5,307.5 C 465.833,307.5 466.167,307.5 466.5,307.5C 466.59,310.152 465.924,312.485 464.5,314.5C 464.674,312.139 465.007,309.806 465.5,307.5 Z"/></g>
<g><path style="opacity:0.878" fill="#cf7c85" d="M 441.5,308.5 C 443.074,310.102 443.741,312.102 443.5,314.5C 441.926,312.898 441.259,310.898 441.5,308.5 Z"/></g>
<g><path style="opacity:0.038" fill="#bf4e7c" d="M 408.5,316.5 C 407.21,315.942 406.377,314.942 406,313.5C 405.802,315.382 405.302,317.048 404.5,318.5C 404.192,316.076 404.526,313.743 405.5,311.5C 407.262,312.688 408.262,314.355 408.5,316.5 Z"/></g>
<g><path style="opacity:0.043" fill="#c66181" d="M 451.5,302.5 C 453.455,307.627 455.122,312.96 456.5,318.5C 458.859,319.714 461.192,319.714 463.5,318.5C 462.666,319.748 461.333,320.415 459.5,320.5C 458.167,320.167 456.833,319.833 455.5,319.5C 453.655,313.941 452.322,308.275 451.5,302.5 Z"/></g>
<g><path style="opacity:0.012" fill="#b63a6c" d="M 139.5,310.5 C 139.59,313.152 138.924,315.485 137.5,317.5C 137.41,314.848 138.076,312.515 139.5,310.5 Z"/></g>
<g><path style="opacity:0.037" fill="#b7436c" d="M 162.5,312.5 C 164.042,313.301 165.708,313.634 167.5,313.5C 166.903,314.139 166.07,314.472 165,314.5C 163.624,314.316 162.791,313.649 162.5,312.5 Z"/></g>
<g><path style="opacity:0.022" fill="#b83c72" d="M 221.5,312.5 C 222.338,312.842 222.672,313.508 222.5,314.5C 220.302,314.591 219.969,313.925 221.5,312.5 Z"/></g>
<g><path style="opacity:0.257" fill="#c36474" d="M 283.5,312.5 C 285.042,313.301 286.708,313.634 288.5,313.5C 287.903,314.139 287.07,314.472 286,314.5C 284.624,314.316 283.791,313.649 283.5,312.5 Z"/></g>
<g><path style="opacity:0.286" fill="#c35581" d="M 483.5,309.5 C 484.29,310.609 484.79,311.942 485,313.5C 485.493,310.015 486.993,309.515 489.5,312C 489.167,312.333 488.833,312.667 488.5,313C 490.382,313.198 492.048,313.698 493.5,314.5C 490.167,314.5 486.833,314.5 483.5,314.5C 483.5,312.833 483.5,311.167 483.5,309.5 Z"/></g>
<g><path style="opacity:0.02" fill="#b84070" d="M 204.5,314.5 C 205.815,315.895 205.481,316.895 203.5,317.5C 203.263,316.209 203.596,315.209 204.5,314.5 Z"/></g>
<g><path style="opacity:0.2" fill="#c05b73" d="M 276.5,314.5 C 277.674,315.514 278.34,316.847 278.5,318.5C 276.896,317.713 276.229,316.38 276.5,314.5 Z"/></g>
<g><path style="opacity:0.061" fill="#c04e7d" d="M 414.5,314.5 C 416.104,315.287 416.771,316.62 416.5,318.5C 415.326,317.486 414.66,316.153 414.5,314.5 Z"/></g>
<g><path style="opacity:0.958" fill="#c67472" d="M 282.5,316.5 C 285.92,316.483 289.254,316.317 292.5,316C 290.884,317.077 289.051,317.577 287,317.5C 285.293,317.492 283.793,317.158 282.5,316.5 Z"/></g>
<g><path style="opacity:0.835" fill="#d58d89" d="M 461.5,311.5 C 461.753,313.827 461.086,315.827 459.5,317.5C 458.614,316.675 458.281,315.675 458.5,314.5C 459.9,313.9 460.9,312.9 461.5,311.5 Z"/></g>
<g><path style="opacity:0.008" fill="#b52f72" d="M 202.5,318.5 C 203.833,319.167 203.833,319.167 202.5,318.5 Z"/></g>
<g><path style="opacity:0.02" fill="#b83878" d="M 371.5,318.5 C 372.833,319.167 372.833,319.167 371.5,318.5 Z"/></g>
<g><path style="opacity:0.624" fill="#cd7682" d="M 422.5,316.5 C 422.5,317.5 422.5,318.5 422.5,319.5C 424.5,319.5 426.5,319.5 428.5,319.5C 426.393,320.468 424.059,320.802 421.5,320.5C 421.232,318.901 421.566,317.568 422.5,316.5 Z"/></g>
<g><path style="opacity:0.567" fill="#d18285" d="M 430.5,313.5 C 435.485,311.139 438.152,312.806 438.5,318.5C 440.396,319.466 442.396,319.799 444.5,319.5C 444.5,319.833 444.5,320.167 444.5,320.5C 442.143,320.663 439.81,320.497 437.5,320C 436.914,317.72 436.08,315.553 435,313.5C 433.586,314.413 432.086,314.413 430.5,313.5 Z"/></g>
<g><path style="opacity:0.588" fill="#d3828a" d="M 477.5,289.5 C 477.5,289.833 477.5,290.167 477.5,290.5C 477.5,300.167 477.5,309.833 477.5,319.5C 482.833,319.5 488.167,319.5 493.5,319.5C 488.025,320.489 482.358,320.822 476.5,320.5C 476.172,309.986 476.506,299.653 477.5,289.5 Z"/></g>
<g><path style="opacity:0.557" fill="#d5868c" d="M 501.5,289.5 C 501.5,289.833 501.5,290.167 501.5,290.5C 501.5,300.167 501.5,309.833 501.5,319.5C 506.833,319.5 512.167,319.5 517.5,319.5C 512.025,320.489 506.358,320.822 500.5,320.5C 500.172,309.986 500.506,299.653 501.5,289.5 Z"/></g>
<g><path style="opacity:0.004" fill="#b73577" d="M 318.5,320.5 C 317.833,321.167 317.833,321.167 318.5,320.5 Z"/></g>
<g><path style="opacity:0.004" fill="#b83979" d="M 404.5,320.5 C 405.833,321.167 405.833,321.167 404.5,320.5 Z"/></g>
<g><path style="opacity:0.004" fill="#b93b7a" d="M 444.5,320.5 C 445.833,321.167 445.833,321.167 444.5,320.5 Z"/></g>
</svg>
