<?xml version="1.0" encoding="UTF-8"?>
<!DOCTYPE svg PUBLIC "-//W3C//DTD SVG 1.1//EN" "http://www.w3.org/Graphics/SVG/1.1/DTD/svg11.dtd">
<svg xmlns="http://www.w3.org/2000/svg" version="1.1" width="487px" height="143px" style="shape-rendering:geometricPrecision; text-rendering:geometricPrecision; image-rendering:optimizeQuality; fill-rule:evenodd; clip-rule:evenodd" xmlns:xlink="http://www.w3.org/1999/xlink">
<g><path style="opacity:0.992" fill="#d6b57a" d="M 71.5,46.5 C 69.9735,47.4919 69.3068,48.9919 69.5,51C 69.6942,52.8596 70.0275,54.6929 70.5,56.5C 70.2528,57.7133 69.5862,58.38 68.5,58.5C 68.8039,57.8501 69.1373,57.1835 69.5,56.5C 66.5624,50.9007 63.2291,45.5674 59.5,40.5C 64.4807,40.0652 68.4807,42.0652 71.5,46.5 Z"/></g>
<g><path style="opacity:0.997" fill="#e7d58b" d="M 71.5,46.5 C 72.5,46.8333 73.1667,47.5 73.5,48.5C 72.5111,53.9753 72.1778,59.642 72.5,65.5C 71.5084,65.3284 70.8417,65.6618 70.5,66.5C 68.9582,67.3007 67.2915,67.634 65.5,67.5C 64.1667,67.5 62.8333,67.5 61.5,67.5C 61.3398,65.8008 61.5065,64.1341 62,62.5C 62.3333,63.5 62.6667,64.5 63,65.5C 63.3519,63.7525 63.8519,62.0858 64.5,60.5C 65.5137,59.3263 66.847,58.6596 68.5,58.5C 69.5862,58.38 70.2528,57.7133 70.5,56.5C 70.0275,54.6929 69.6942,52.8596 69.5,51C 69.3068,48.9919 69.9735,47.4919 71.5,46.5 Z"/></g>
<g><path style="opacity:0.999" fill="#b27d53" d="M 50.5,49.5 C 53.9758,48.3567 57.6425,48.1901 61.5,49C 64.171,51.4573 65.171,54.2907 64.5,57.5C 63.3734,56.8783 62.3734,56.045 61.5,55C 60.2506,54.2599 59.2506,54.4265 58.5,55.5C 58.5,55.8333 58.5,56.1667 58.5,56.5C 58.5,57.5 58.5,58.5 58.5,59.5C 58.5,60.1667 58.1667,60.5 57.5,60.5C 57.5,58.1667 57.5,55.8333 57.5,53.5C 58.5,53.5 59.5,53.5 60.5,53.5C 60.5,52.1667 60.5,50.8333 60.5,49.5C 57.1667,49.5 53.8333,49.5 50.5,49.5 Z"/></g>
<g><path style="opacity:1" fill="#aa7f46" d="M 87.5,51.5 C 90.9619,50.5184 94.6286,50.185 98.5,50.5C 97.1598,55.0317 94.1598,58.0317 89.5,59.5C 90.0356,56.3019 89.369,53.6353 87.5,51.5 Z"/></g>
<g><path style="opacity:1" fill="#d6b57a" d="M 50.5,49.5 C 53.8333,49.5 57.1667,49.5 60.5,49.5C 60.5,50.8333 60.5,52.1667 60.5,53.5C 59.5,53.5 58.5,53.5 57.5,53.5C 57.5,55.8333 57.5,58.1667 57.5,60.5C 55.1749,59.3454 54.0082,57.3454 54,54.5C 52.8873,55.305 51.7206,55.9717 50.5,56.5C 49.5084,56.6716 48.8417,56.3382 48.5,55.5C 48.1667,54.1667 47.8333,54.1667 47.5,55.5C 45.2163,55.9752 43.2163,56.9752 41.5,58.5C 40.5655,57.4324 40.2322,56.099 40.5,54.5C 43.2817,51.7758 46.615,50.1092 50.5,49.5 Z"/></g>
<g><path style="opacity:0.249" fill="#b53173" d="M 58.5,55.5 C 59.2506,54.4265 60.2506,54.2599 61.5,55C 62.3734,56.045 63.3734,56.8783 64.5,57.5C 62.9197,59.8054 60.9197,60.472 58.5,59.5C 58.5,58.5 58.5,57.5 58.5,56.5C 59.8333,56.1667 59.8333,55.8333 58.5,55.5 Z"/></g>
<g><path style="opacity:0.173" fill="#cc7181" d="M 47.5,55.5 C 47.8333,55.5 48.1667,55.5 48.5,55.5C 48.8417,56.3382 49.5084,56.6716 50.5,56.5C 49.0527,57.8852 48.0527,57.5518 47.5,55.5 Z"/></g>
<g><path style="opacity:0.983" fill="#b68955" d="M 40.5,54.5 C 40.2322,56.099 40.5655,57.4324 41.5,58.5C 41.0472,59.4584 40.3805,60.2917 39.5,61C 40.8333,61.6667 42.1667,62.3333 43.5,63C 39.1597,63.9239 35.4931,65.7572 32.5,68.5C 33.1077,62.6136 35.7744,57.9469 40.5,54.5 Z"/></g>
<g><path style="opacity:1" fill="#cead70" d="M 87.5,51.5 C 89.369,53.6353 90.0356,56.3019 89.5,59.5C 87.3879,60.5941 85.2213,61.5941 83,62.5C 82.0705,68.9658 81.2372,75.2991 80.5,81.5C 81.0974,71.9034 80.4308,62.5701 78.5,53.5C 81.4606,52.6766 84.4606,52.01 87.5,51.5 Z"/></g>
<g><path style="opacity:0.981" fill="#be8456" d="M 166.5,63.5 C 164.744,64.5521 164.077,66.2188 164.5,68.5C 164.167,68.5 163.833,68.5 163.5,68.5C 163.66,66.8008 163.494,65.1341 163,63.5C 162.023,62.2264 161.189,62.2264 160.5,63.5C 159.167,63.5 157.833,63.5 156.5,63.5C 157.263,62.7321 158.263,62.2321 159.5,62C 157.227,60.7304 155.061,61.2304 153,63.5C 152.333,68.5 152.333,73.5 153,78.5C 160.118,82.6178 163.618,80.6178 163.5,72.5C 163.833,72.5 164.167,72.5 164.5,72.5C 164.025,75.0821 164.692,77.0821 166.5,78.5C 166.141,80.371 165.141,81.871 163.5,83C 152.597,86.0915 147.931,82.0915 149.5,71C 148.267,59.0675 153.267,55.2342 164.5,59.5C 165.705,60.5769 166.372,61.9102 166.5,63.5 Z"/></g>
<g><path style="opacity:0.992" fill="#c28a5b" d="M 179.5,58.5 C 180.552,58.3505 181.552,58.5172 182.5,59C 180.754,59.4709 179.087,60.1376 177.5,61C 178.756,61.4169 179.423,62.2502 179.5,63.5C 177.691,67.3053 177.191,71.3053 178,75.5C 178.377,76.9423 179.21,77.9423 180.5,78.5C 181.602,80.0919 180.935,80.9252 178.5,81C 179.858,81.9344 181.192,82.7677 182.5,83.5C 180.143,83.6633 177.81,83.4966 175.5,83C 174.299,82.0975 173.465,80.9308 173,79.5C 172.333,74.1667 172.333,68.8333 173,63.5C 173.727,60.0452 175.893,58.3785 179.5,58.5 Z"/></g>
<g><path style="opacity:0.994" fill="#c69062" d="M 204.5,63.5 C 204.992,65.8185 205.992,67.8185 207.5,69.5C 207.208,74.3881 206.041,75.0548 204,71.5C 203.601,71.7284 203.435,72.0618 203.5,72.5C 202.883,72.3893 202.383,72.056 202,71.5C 201.506,73.1341 201.34,74.8008 201.5,76.5C 203.914,81.7952 202.247,84.1285 196.5,83.5C 196.5,75.1667 196.5,66.8333 196.5,58.5C 200.763,57.7929 203.43,59.4596 204.5,63.5 Z M 198.5,65.5 C 199.239,65.369 199.906,65.5357 200.5,66C 199.736,68.0693 199.236,70.236 199,72.5C 198.503,70.1902 198.337,67.8568 198.5,65.5 Z"/></g>
<g><path style="opacity:0.986" fill="#c99b62" d="M 204.5,77.5 C 203.962,75.8828 203.629,74.2161 203.5,72.5C 203.435,72.0618 203.601,71.7284 204,71.5C 206.041,75.0548 207.208,74.3881 207.5,69.5C 207.5,67.8333 207.5,66.1667 207.5,64.5C 207.5,62.5 207.5,60.5 207.5,58.5C 209.167,58.5 210.833,58.5 212.5,58.5C 212.5,66.8333 212.5,75.1667 212.5,83.5C 207.853,84.1909 205.187,82.1909 204.5,77.5 Z M 209.5,70.5 C 210.803,73.3553 210.803,76.3553 209.5,79.5C 209.346,76.7808 209.346,73.7808 209.5,70.5 Z"/></g>
<g><path style="opacity:0.985" fill="#cca565" d="M 219.5,58.5 C 221.167,58.5 222.833,58.5 224.5,58.5C 224.334,65.175 224.5,71.8417 225,78.5C 227.621,78.2964 230.455,78.2964 233.5,78.5C 233.714,80.1439 233.38,81.6439 232.5,83C 228.179,83.499 223.846,83.6657 219.5,83.5C 219.5,75.1667 219.5,66.8333 219.5,58.5 Z"/></g>
<g><path style="opacity:0.99" fill="#cfa66a" d="M 238.5,58.5 C 240.167,58.5 241.833,58.5 243.5,58.5C 243.5,66.8333 243.5,75.1667 243.5,83.5C 241.833,83.5 240.167,83.5 238.5,83.5C 238.5,75.1667 238.5,66.8333 238.5,58.5 Z"/></g>
<g><path style="opacity:0.985" fill="#d09d71" d="M 255.5,57.5 C 263.533,56.2098 267.533,59.5432 267.5,67.5C 264.136,68.2107 261.803,67.044 260.5,64C 258.888,63.2797 257.388,63.4464 256,64.5C 255.333,68.8333 255.333,73.1667 256,77.5C 259.172,78.9971 261.005,77.9971 261.5,74.5C 260.167,74.5 258.833,74.5 257.5,74.5C 257.34,72.8008 257.506,71.1341 258,69.5C 258.561,68.9781 259.228,68.6448 260,68.5C 262.27,69.2748 264.437,69.6081 266.5,69.5C 268.973,83.4932 263.806,87.4932 251,81.5C 249.419,75.2774 249.085,68.9441 250,62.5C 251.107,59.887 252.94,58.2203 255.5,57.5 Z"/></g>
<g><path style="opacity:0.993" fill="#d4a575" d="M 279.5,68.5 C 281.607,69.4682 283.941,69.8016 286.5,69.5C 287.858,71.2724 287.858,71.939 286.5,71.5C 283.482,71.3354 280.482,71.502 277.5,72C 280.036,72.1862 282.369,72.6862 284.5,73.5C 282.533,73.2606 280.699,73.5939 279,74.5C 279.011,77.4369 278.845,80.2702 278.5,83C 276.866,83.4935 275.199,83.6602 273.5,83.5C 273.5,75.1667 273.5,66.8333 273.5,58.5C 276.045,58.1505 278.045,58.9838 279.5,61C 278.221,63.4976 278.221,65.9976 279.5,68.5 Z"/></g>
<g><path style="opacity:0.989" fill="#d6a57c" d="M 295.5,57.5 C 300.769,58.1241 306.103,58.1241 311.5,57.5C 313.224,62.0001 311.558,64.0001 306.5,63.5C 306.666,69.8421 306.5,76.1754 306,82.5C 304.301,83.4061 302.467,83.7394 300.5,83.5C 300.5,76.8333 300.5,70.1667 300.5,63.5C 295.074,64.4161 293.407,62.4161 295.5,57.5 Z"/></g>
<g><path style="opacity:0.987" fill="#dfb784" d="M 345.5,62.5 C 343.5,62.5 341.5,62.5 339.5,62.5C 339.5,69.1667 339.5,75.8333 339.5,82.5C 338.167,82.5 336.833,82.5 335.5,82.5C 335.297,76.6873 335.13,70.6873 335,64.5C 333.175,63.8971 331.341,63.2304 329.5,62.5C 328.2,59.9288 329.033,58.2621 332,57.5C 336.342,57.5201 340.842,57.6868 345.5,58C 346.801,59.6155 346.801,61.1155 345.5,62.5 Z"/></g>
<g><path style="opacity:0.995" fill="#dfb089" d="M 351.5,58.5 C 364.444,55.2788 369.277,60.2788 366,73.5C 365.167,74.3333 364.333,75.1667 363.5,76C 364.786,78.0223 365.786,80.1889 366.5,82.5C 364.579,83.641 362.579,83.8077 360.5,83C 359.968,80.5368 358.634,78.7035 356.5,77.5C 357.398,76.8423 358.398,76.1757 359.5,75.5C 358.667,75.1667 357.833,74.8333 357,74.5C 355.624,74.6842 354.791,75.3509 354.5,76.5C 354.167,76.5 353.833,76.5 353.5,76.5C 353.5,75.1667 353.5,73.8333 353.5,72.5C 353.833,72.5 354.167,72.5 354.5,72.5C 356.628,73.6291 358.961,73.7958 361.5,73C 362.381,72.2917 363.047,71.4584 363.5,70.5C 364.833,69.1667 364.833,67.8333 363.5,66.5C 363.579,65.0695 363.246,63.7362 362.5,62.5C 359.914,61.52 357.247,61.1866 354.5,61.5C 354.5,60.8333 354.167,60.5 353.5,60.5C 353.5,59.1667 352.833,58.5 351.5,58.5 Z"/></g>
<g><path style="opacity:0.999" fill="#e6c48f" d="M 383.5,79.5 C 383.03,78.3065 382.03,77.6399 380.5,77.5C 379.274,77.5195 378.274,77.8529 377.5,78.5C 377.512,82.4459 375.512,84.1126 371.5,83.5C 377.285,48.9798 383.285,48.9798 389.5,83.5C 385.759,84.4015 383.759,83.0681 383.5,79.5 Z"/></g>
<g><path style="opacity:0.996" fill="#f2d89e" d="M 441.5,58.5 C 441.5,65.1667 441.5,71.8333 441.5,78.5C 444.167,78.5 446.833,78.5 449.5,78.5C 451.22,79.7507 451.553,81.2507 450.5,83C 445.845,83.4992 441.179,83.6658 436.5,83.5C 436.334,75.16 436.5,66.8267 437,58.5C 438.616,57.1991 440.116,57.1991 441.5,58.5 Z"/></g>
<g><path style="opacity:0.313" fill="#d68a8f" d="M 441.5,58.5 C 442.49,64.6446 442.823,70.9779 442.5,77.5C 445.059,77.1984 447.393,77.5318 449.5,78.5C 446.833,78.5 444.167,78.5 441.5,78.5C 441.5,71.8333 441.5,65.1667 441.5,58.5 Z"/></g>
<g><path style="opacity:0.988" fill="#c48f5d" d="M 179.5,58.5 C 183.969,56.9379 187.469,58.2712 190,62.5C 190.667,68.1667 190.667,73.8333 190,79.5C 188.461,82.5208 185.961,83.8541 182.5,83.5C 181.192,82.7677 179.858,81.9344 178.5,81C 180.935,80.9252 181.602,80.0919 180.5,78.5C 184.466,77.7776 186.132,75.2776 185.5,71C 186.17,66.1154 184.17,63.6154 179.5,63.5C 179.423,62.2502 178.756,61.4169 177.5,61C 179.087,60.1376 180.754,59.4709 182.5,59C 181.552,58.5172 180.552,58.3505 179.5,58.5 Z"/></g>
<g><path style="opacity:0.978" fill="#bf8f52" d="M 156.5,63.5 C 155.778,63.9175 155.278,64.5842 155,65.5C 154.333,69.1667 154.333,72.8333 155,76.5C 157,79.1667 159,79.1667 161,76.5C 161.768,72.0804 161.602,67.7471 160.5,63.5C 161.189,62.2264 162.023,62.2264 163,63.5C 163.494,65.1341 163.66,66.8008 163.5,68.5C 163.833,69.8333 164.167,69.8333 164.5,68.5C 164.077,66.2188 164.744,64.5521 166.5,63.5C 166.5,68.5 166.5,73.5 166.5,78.5C 164.692,77.0821 164.025,75.0821 164.5,72.5C 164.167,69.8333 163.833,69.8333 163.5,72.5C 163.618,80.6178 160.118,82.6178 153,78.5C 152.333,73.5 152.333,68.5 153,63.5C 155.061,61.2304 157.227,60.7304 159.5,62C 158.263,62.2321 157.263,62.7321 156.5,63.5 Z M 156.5,63.5 C 157.833,63.5 159.167,63.5 160.5,63.5C 161.602,67.7471 161.768,72.0804 161,76.5C 159,79.1667 157,79.1667 155,76.5C 154.333,72.8333 154.333,69.1667 155,65.5C 155.278,64.5842 155.778,63.9175 156.5,63.5 Z"/></g>
<g><path style="opacity:0.464" fill="#d08682" d="M 338.5,64.5 C 338.167,64.5 337.833,64.5 337.5,64.5C 337.5,63.5 337.5,62.5 337.5,61.5C 336.571,60.2016 336.904,60.2016 338.5,61.5C 338.5,62.5 338.5,63.5 338.5,64.5 Z"/></g>
<g><path style="opacity:0.781" fill="#e9c099" d="M 438.5,60.5 C 440.459,66.7496 441.126,73.4163 440.5,80.5C 443.187,80.3359 445.854,80.5026 448.5,81C 445.183,81.4983 441.85,81.665 438.5,81.5C 438.5,74.5 438.5,67.5 438.5,60.5 Z"/></g>
<g><path style="opacity:0.998" fill="#e8c293" d="M 393.5,57.5 C 395.144,57.2865 396.644,57.6198 398,58.5C 399.64,62.3921 400.973,66.3921 402,70.5C 403.964,66.6666 405.631,62.6666 407,58.5C 408.356,57.6198 409.856,57.2865 411.5,57.5C 409.987,65.5522 408.154,73.5522 406,81.5C 403.975,83.7253 401.642,84.0586 399,82.5C 397.335,74.8285 395.168,67.3285 392.5,60C 393.252,59.3292 393.586,58.4959 393.5,57.5 Z"/></g>
<g><path style="opacity:0.999" fill="#a8684a" d="M 55.5,63.5 C 55.1915,67.9581 55.1915,72.6248 55.5,77.5C 54.7632,74.2746 54.0965,70.9412 53.5,67.5C 53.2624,65.5956 52.2624,64.2623 50.5,63.5C 46.8288,62.375 46.6621,61.0417 50,59.5C 52.1496,60.4825 53.9829,61.8158 55.5,63.5 Z"/></g>
<g><path style="opacity:1" fill="#ebda8f" d="M 73.5,48.5 C 75.5,49.8333 77.1667,51.5 78.5,53.5C 80.4308,62.5701 81.0974,71.9034 80.5,81.5C 79.9688,83.5441 78.8022,85.2107 77,86.5C 75.8512,83.6074 75.3512,80.6074 75.5,77.5C 75.6641,74.8127 75.4974,72.146 75,69.5C 74.8784,67.563 74.045,66.2297 72.5,65.5C 72.1778,59.642 72.5111,53.9753 73.5,48.5 Z"/></g>
<g><path style="opacity:0.881" fill="#ba4078" d="M 204.5,63.5 C 205.609,63.5569 206.609,63.8902 207.5,64.5C 207.5,66.1667 207.5,67.8333 207.5,69.5C 205.992,67.8185 204.992,65.8185 204.5,63.5 Z"/></g>
<g><path style="opacity:0.986" fill="#daa783" d="M 345.5,62.5 C 344.081,63.4511 342.415,63.7845 340.5,63.5C 340.5,70.1667 340.5,76.8333 340.5,83.5C 338.585,83.7845 336.919,83.4511 335.5,82.5C 336.833,82.5 338.167,82.5 339.5,82.5C 339.5,75.8333 339.5,69.1667 339.5,62.5C 341.5,62.5 343.5,62.5 345.5,62.5 Z"/></g>
<g><path style="opacity:0.193" fill="#b3356d" d="M 50.5,63.5 C 52.2624,64.2623 53.2624,65.5956 53.5,67.5C 52.5084,67.3284 51.8417,67.6618 51.5,68.5C 50.5987,67.7095 49.9321,66.7095 49.5,65.5C 49.8333,64.8333 50.1667,64.1667 50.5,63.5 Z"/></g>
<g><path style="opacity:0.059" fill="#c45a7c" d="M 70.5,66.5 C 70.8417,65.6618 71.5084,65.3284 72.5,65.5C 74.045,66.2297 74.8784,67.563 75,69.5C 75.4974,72.146 75.6641,74.8127 75.5,77.5C 74.4751,74.0264 73.8084,70.3597 73.5,66.5C 72.5,66.5 71.5,66.5 70.5,66.5 Z"/></g>
<g><path style="opacity:1" fill="#b78e55" d="M 64.5,60.5 C 63.8519,62.0858 63.3519,63.7525 63,65.5C 62.6667,64.5 62.3333,63.5 62,62.5C 61.5065,64.1341 61.3398,65.8008 61.5,67.5C 62.8333,67.5 64.1667,67.5 65.5,67.5C 60.1316,67.8768 57.465,70.8768 57.5,76.5C 57.0431,77.2975 56.3764,77.6309 55.5,77.5C 55.1915,72.6248 55.1915,67.9581 55.5,63.5C 58.655,63.0231 61.655,62.0231 64.5,60.5 Z"/></g>
<g><path style="opacity:0.996" fill="#dec682" d="M 43.5,66.5 C 45.4136,69.6843 46.0803,73.351 45.5,77.5C 40.3413,79.9121 35.3413,82.5788 30.5,85.5C 29.5233,82.7131 29.19,79.7131 29.5,76.5C 33.3478,71.9803 38.0144,68.647 43.5,66.5 Z"/></g>
<g><path style="opacity:1" fill="#a77b42" d="M 49.5,65.5 C 49.9321,66.7095 50.5987,67.7095 51.5,68.5C 52.8107,73.5194 50.8107,76.5194 45.5,77.5C 46.0803,73.351 45.4136,69.6843 43.5,66.5C 45.2082,64.4876 47.2082,64.1542 49.5,65.5 Z"/></g>
<g><path style="opacity:1" fill="#be4880" d="M 379.5,69.5 C 381.332,70.1405 381.665,71.1405 380.5,72.5C 379.614,71.675 379.281,70.675 379.5,69.5 Z"/></g>
<g><path style="opacity:0.994" fill="#edcc99" d="M 430.5,82.5 C 426.167,82.5 421.833,82.5 417.5,82.5C 417.5,74.5 417.5,66.5 417.5,58.5C 421.634,57.5151 425.968,57.1818 430.5,57.5C 431.052,59.3307 431.052,60.9974 430.5,62.5C 427.914,63.48 425.247,63.8134 422.5,63.5C 422.343,64.8734 422.51,66.2068 423,67.5C 425.501,67.95 427.667,68.95 429.5,70.5C 427.937,73.0289 425.604,74.0289 422.5,73.5C 422.5,74.8333 422.5,76.1667 422.5,77.5C 425.187,77.3359 427.854,77.5026 430.5,78C 431.801,79.6155 431.801,81.1155 430.5,82.5 Z"/></g>
<g><path style="opacity:0.963" fill="#e4b594" d="M 418.5,60.5 C 421.85,60.335 425.183,60.5017 428.5,61C 425.518,61.498 422.518,61.6646 419.5,61.5C 419.5,64.1667 419.5,66.8333 419.5,69.5C 428.833,70.1667 428.833,70.8333 419.5,71.5C 419.5,74.5 419.5,77.5 419.5,80.5C 422.518,80.3354 425.518,80.502 428.5,81C 425.183,81.4983 421.85,81.665 418.5,81.5C 418.5,74.5 418.5,67.5 418.5,60.5 Z"/></g>
<g><path style="opacity:1" fill="#ba834d" d="M 132.5,72.5 C 133.268,73.2625 133.768,74.2625 134,75.5C 135.47,70.7574 137.136,66.0907 139,61.5C 139.333,68.1667 139.667,74.8333 140,81.5C 140.5,74.5079 140.666,67.5079 140.5,60.5C 138.876,60.3601 137.71,61.0267 137,62.5C 136.536,61.9056 136.369,61.2389 136.5,60.5C 137.918,58.6921 139.918,58.0254 142.5,58.5C 142.5,66.8333 142.5,75.1667 142.5,83.5C 140.901,83.7678 139.568,83.4345 138.5,82.5C 138.666,78.1539 138.499,73.8206 138,69.5C 137.209,70.745 136.709,72.0783 136.5,73.5C 135.978,76.5682 135.145,79.5682 134,82.5C 132.085,83.9156 130.585,83.5822 129.5,81.5C 127.517,69.3557 126.517,69.0223 126.5,80.5C 126.5,81.5 126.5,82.5 126.5,83.5C 124.833,83.5 123.167,83.5 121.5,83.5C 121.5,75.1667 121.5,66.8333 121.5,58.5C 123.604,58.2011 125.604,58.5344 127.5,59.5C 129.002,64.022 130.668,68.3554 132.5,72.5 Z"/></g>
<g><path style="opacity:0.588" fill="#b95f61" d="M 138.5,82.5 C 137.833,79.5 137.167,76.5 136.5,73.5C 136.709,72.0783 137.209,70.745 138,69.5C 138.499,73.8206 138.666,78.1539 138.5,82.5 Z"/></g>
<g><path style="opacity:1" fill="#ba7059" d="M 136.5,60.5 C 136.369,61.2389 136.536,61.9056 137,62.5C 137.71,61.0267 138.876,60.3601 140.5,60.5C 140.666,67.5079 140.5,74.5079 140,81.5C 139.667,74.8333 139.333,68.1667 139,61.5C 137.136,66.0907 135.47,70.7574 134,75.5C 133.768,74.2625 133.268,73.2625 132.5,72.5C 133.261,68.2157 134.595,64.2157 136.5,60.5 Z"/></g>
<g><path style="opacity:0.999" fill="#b87054" d="M 122.5,60.5 C 123.833,60.5 125.167,60.5 126.5,60.5C 127.342,63.4981 127.842,66.4981 128,69.5C 126.803,66.9109 125.803,64.2442 125,61.5C 124.831,68.1915 124.331,74.8581 123.5,81.5C 122.503,74.5316 122.17,67.5316 122.5,60.5 Z"/></g>
<g><path style="opacity:0.945" fill="#b73d71" d="M 129.5,81.5 C 128.778,81.0825 128.278,80.4158 128,79.5C 127.617,80.056 127.117,80.3893 126.5,80.5C 126.517,69.0223 127.517,69.3557 129.5,81.5 Z"/></g>
<g><path style="opacity:1" fill="#bc4e74" d="M 203.5,72.5 C 203.629,74.2161 203.962,75.8828 204.5,77.5C 203.609,76.8902 202.609,76.5569 201.5,76.5C 201.34,74.8008 201.506,73.1341 202,71.5C 202.383,72.056 202.883,72.3893 203.5,72.5 Z"/></g>
<g><path style="opacity:0.965" fill="#e3c089" d="M 351.5,58.5 C 352.833,58.5 353.5,59.1667 353.5,60.5C 354.167,60.5 354.5,60.8333 354.5,61.5C 357.247,61.1866 359.914,61.52 362.5,62.5C 363.246,63.7362 363.579,65.0695 363.5,66.5C 363.5,67.8333 363.5,69.1667 363.5,70.5C 363.047,71.4584 362.381,72.2917 361.5,73C 358.961,73.7958 356.628,73.6291 354.5,72.5C 354.167,61.8333 353.833,61.8333 353.5,72.5C 353.5,73.8333 353.5,75.1667 353.5,76.5C 353.833,81.8333 354.167,81.8333 354.5,76.5C 354.791,75.3509 355.624,74.6842 357,74.5C 357.833,74.8333 358.667,75.1667 359.5,75.5C 358.398,76.1757 357.398,76.8423 356.5,77.5C 358.395,83.1033 356.562,84.77 351,82.5C 351.437,74.4349 351.603,66.4349 351.5,58.5 Z M 357.5,64.5 C 361.685,65.5565 362.352,67.7232 359.5,71C 358.552,71.4828 357.552,71.6495 356.5,71.5C 356.993,69.1944 357.326,66.861 357.5,64.5 Z"/></g>
<g><path style="opacity:0.998" fill="#d6ab77" d="M 284.5,73.5 C 282.369,72.6862 280.036,72.1862 277.5,72C 280.482,71.502 283.482,71.3354 286.5,71.5C 287.858,71.939 287.858,71.2724 286.5,69.5C 283.941,69.8016 281.607,69.4682 279.5,68.5C 281.167,68.5 282.833,68.5 284.5,68.5C 283.89,64.3652 284.723,60.6986 287,57.5C 288,58.1667 289,58.8333 290,59.5C 290.667,67.1667 290.667,74.8333 290,82.5C 288.301,83.4061 286.467,83.7394 284.5,83.5C 284.5,80.1667 284.5,76.8333 284.5,73.5 Z"/></g>
<g><path style="opacity:0.037" fill="#c86884" d="M 377.5,78.5 C 378.274,77.8529 379.274,77.5195 380.5,77.5C 382.03,77.6399 383.03,78.3065 383.5,79.5C 381.621,78.6586 379.621,78.3253 377.5,78.5 Z"/></g>
<g><path style="opacity:0.713" fill="#c3716f" d="M 221.5,75.5 C 221.833,75.5 222.167,75.5 222.5,75.5C 222.5,77.1667 222.5,78.8333 222.5,80.5C 225.187,80.3359 227.854,80.5026 230.5,81C 227.518,81.498 224.518,81.6646 221.5,81.5C 221.5,79.5 221.5,77.5 221.5,75.5 Z"/></g>
<g><path style="opacity:0.996" fill="#ecdb92" d="M 57.5,80.5 C 57.2322,82.099 57.5655,83.4324 58.5,84.5C 59.5,85.1667 60.5,85.8333 61.5,86.5C 60.1667,86.5 58.8333,86.5 57.5,86.5C 57.5,89.5 57.5,92.5 57.5,95.5C 58.5,95.5 59.5,95.5 60.5,95.5C 61.4345,96.5676 61.7678,97.901 61.5,99.5C 60.209,99.2627 59.209,99.596 58.5,100.5C 55.4299,100.632 52.4299,100.299 49.5,99.5C 48.7659,98.2921 48.4326,96.9587 48.5,95.5C 48.8333,95.5 49.1667,95.5 49.5,95.5C 50.1667,94.8333 50.8333,94.1667 51.5,93.5C 52.7079,94.2341 54.0413,94.5674 55.5,94.5C 55.5,93.5 55.5,92.5 55.5,91.5C 55.5,89.8333 55.5,88.1667 55.5,86.5C 53.1667,86.5 50.8333,86.5 48.5,86.5C 48.1667,86.5 47.8333,86.5 47.5,86.5C 49.5703,85.7482 52.2369,85.0816 55.5,84.5C 55.5,83.8333 55.5,83.1667 55.5,82.5C 55.5,81.1667 56.1667,80.5 57.5,80.5 Z"/></g>
<g><path style="opacity:0.789" fill="#e1ab92" d="M 417.5,58.5 C 417.5,66.5 417.5,74.5 417.5,82.5C 421.833,82.5 426.167,82.5 430.5,82.5C 430.217,83.2891 429.717,83.9558 429,84.5C 424.934,83.5363 420.767,83.203 416.5,83.5C 416.174,74.9832 416.507,66.6499 417.5,58.5 Z"/></g>
<g><path style="opacity:0.015" fill="#b52e73" d="M 55.5,82.5 C 55.5,83.1667 55.5,83.8333 55.5,84.5C 54.1667,84.5 52.8333,84.5 51.5,84.5C 52.6715,83.6554 54.0048,82.9887 55.5,82.5 Z"/></g>
<g><path style="opacity:0.004" fill="#bf4e78" d="M 64.5,84.5 C 62.5,84.5 60.5,84.5 58.5,84.5C 57.5655,83.4324 57.2322,82.099 57.5,80.5C 58.5071,80.4524 58.8404,81.4524 58.5,83.5C 60.7354,83.2053 62.7354,83.5386 64.5,84.5 Z"/></g>
<g><path style="opacity:0.177" fill="#cf7e82" d="M 61.5,86.5 C 62.1667,86.5 62.8333,86.5 63.5,86.5C 62.0813,87.4511 60.4147,87.7845 58.5,87.5C 57.9898,90.3878 58.6565,92.7211 60.5,94.5C 60.5,94.8333 60.5,95.1667 60.5,95.5C 59.5,95.5 58.5,95.5 57.5,95.5C 57.5,92.5 57.5,89.5 57.5,86.5C 58.8333,86.5 60.1667,86.5 61.5,86.5 Z"/></g>
<g><path style="opacity:0.012" fill="#ba4075" d="M 48.5,86.5 C 50.8333,86.5 53.1667,86.5 55.5,86.5C 55.5,88.1667 55.5,89.8333 55.5,91.5C 54.5655,90.4324 54.2322,89.099 54.5,87.5C 52.2646,87.7947 50.2646,87.4614 48.5,86.5 Z"/></g>
<g><path style="opacity:1" fill="#b0894b" d="M 29.5,76.5 C 29.19,79.7131 29.5233,82.7131 30.5,85.5C 27.7663,88.0962 27.0996,91.0962 28.5,94.5C 27.8333,95.5 27.1667,96.5 26.5,97.5C 23.3663,95.9285 21.6997,93.2618 21.5,89.5C 22.3891,84.0518 25.0558,79.7185 29.5,76.5 Z"/></g>
<g><path style="opacity:0.999" fill="#c09660" d="M 51.5,84.5 C 52.8333,84.5 54.1667,84.5 55.5,84.5C 52.2369,85.0816 49.5703,85.7482 47.5,86.5C 47.5106,88.0174 48.1772,89.1841 49.5,90C 49.1667,90.3333 48.8333,90.6667 48.5,91C 49.9423,91.3768 50.9423,92.2101 51.5,93.5C 50.8333,94.1667 50.1667,94.8333 49.5,95.5C 49.5,94.8333 49.1667,94.5 48.5,94.5C 48.5,94.8333 48.5,95.1667 48.5,95.5C 48.4326,96.9587 48.7659,98.2921 49.5,99.5C 43.9917,98.3321 39.825,95.3321 37,90.5C 36.161,85.5648 38.3277,83.5648 43.5,84.5C 44.5,79.1667 45.5,79.1667 46.5,84.5C 48.1667,84.5 49.8333,84.5 51.5,84.5 Z M 40.5,86.5 C 42.0276,87.3092 43.6943,87.9759 45.5,88.5C 46.5,90.5 47.5,92.5 48.5,94.5C 44.4732,92.9795 41.1398,90.4795 38.5,87C 39.0944,86.5357 39.7611,86.369 40.5,86.5 Z"/></g>
<g><path style="opacity:0.016" fill="#b64c6a" d="M 40.5,86.5 C 42.7812,86.0773 44.4479,86.744 45.5,88.5C 43.6943,87.9759 42.0276,87.3092 40.5,86.5 Z"/></g>
<g><path style="opacity:0.988" fill="#c59d67" d="M 58.5,100.5 C 59.209,99.596 60.209,99.2627 61.5,99.5C 61.7678,97.901 61.4345,96.5676 60.5,95.5C 60.5,95.1667 60.5,94.8333 60.5,94.5C 62.6137,92.9811 64.2803,90.9811 65.5,88.5C 65.2528,87.2867 64.5862,86.62 63.5,86.5C 62.8333,86.5 62.1667,86.5 61.5,86.5C 60.5,85.8333 59.5,85.1667 58.5,84.5C 60.5,84.5 62.5,84.5 64.5,84.5C 65.5,84.5 66.5,84.5 67.5,84.5C 68.2631,81.8589 68.4298,79.1922 68,76.5C 65.6062,75.8641 63.1062,75.8641 60.5,76.5C 60.3118,74.8967 60.8118,73.5634 62,72.5C 64.0408,73.4231 66.2075,73.7564 68.5,73.5C 68.238,72.0222 68.5713,70.6888 69.5,69.5C 70.316,71.2873 71.316,72.9539 72.5,74.5C 70.699,77.5354 70.0323,80.8687 70.5,84.5C 71.675,84.281 72.675,84.6143 73.5,85.5C 71.9539,86.684 70.2873,87.684 68.5,88.5C 67.4078,91.0942 65.7411,93.2609 63.5,95C 65.5979,94.9678 67.5979,94.3011 69.5,93C 71.0542,91.108 72.8876,89.608 75,88.5C 76.9457,88.7627 77.6123,89.7627 77,91.5C 72.0769,97.0448 65.9102,100.045 58.5,100.5 Z"/></g>
<g><path style="opacity:0.973" fill="#d8ae7e" d="M 28.5,94.5 C 32.3566,95.1749 36.0233,96.3415 39.5,98C 35.1213,99.3997 30.7879,99.2331 26.5,97.5C 27.1667,96.5 27.8333,95.5 28.5,94.5 Z"/></g>
</svg>
